<svg xmlns="http://www.w3.org/2000/svg" version="1.1" xmlns:xlink="http://www.w3.org/1999/xlink" xmlns:svgjs="http://svgjs.dev/svgjs" width="1440" height="600" preserveAspectRatio="none" viewBox="0 0 1440 600">
    <g mask="url(&quot;#SvgjsMask1071&quot;)" fill="none">
        <g mask="url(&quot;#SvgjsMask1072&quot;)">
            <path d="M425 175L575 25L1375 25" stroke-width="8.33" stroke="rgba(255, 255, 255, 1)"></path>
            <path d="M412.5 175 a12.5 12.5 0 1 0 25 0 a12.5 12.5 0 1 0 -25 0zM1362.5 25 a12.5 12.5 0 1 0 25 0 a12.5 12.5 0 1 0 -25 0z" fill="rgba(255, 255, 255, 1)"></path>
            <path d="M775 575L1425 575" stroke-width="8.33" stroke="rgba(255, 255, 255, 1)"></path>
            <path d="M762.5 575 a12.5 12.5 0 1 0 25 0 a12.5 12.5 0 1 0 -25 0zM1412.5 575 a12.5 12.5 0 1 0 25 0 a12.5 12.5 0 1 0 -25 0z" fill="rgba(255, 255, 255, 1)"></path>
            <path d="M825 275L825 75" stroke-width="8.33" stroke="rgba(255, 255, 255, 1)"></path>
            <path d="M812.5 275 a12.5 12.5 0 1 0 25 0 a12.5 12.5 0 1 0 -25 0zM812.5 75 a12.5 12.5 0 1 0 25 0 a12.5 12.5 0 1 0 -25 0z" fill="rgba(255, 255, 255, 1)"></path>
            <path d="M1275 175L875 175" stroke-width="8.33" stroke="rgba(255, 255, 255, 1)"></path>
            <path d="M1262.5 175 a12.5 12.5 0 1 0 25 0 a12.5 12.5 0 1 0 -25 0zM862.5 175 a12.5 12.5 0 1 0 25 0 a12.5 12.5 0 1 0 -25 0z" fill="rgba(255, 255, 255, 1)"></path>
            <path d="M475 75L25 525L25 575" stroke-width="8.33" stroke="rgba(255, 255, 255, 1)"></path>
            <path d="M462.5 75 a12.5 12.5 0 1 0 25 0 a12.5 12.5 0 1 0 -25 0zM12.5 575 a12.5 12.5 0 1 0 25 0 a12.5 12.5 0 1 0 -25 0z" fill="rgba(255, 255, 255, 1)"></path>
            <path d="M275 25L525 25" stroke-width="8.33" stroke="rgba(255, 255, 255, 1)"></path>
            <path d="M262.5 25 a12.5 12.5 0 1 0 25 0 a12.5 12.5 0 1 0 -25 0zM512.5 25 a12.5 12.5 0 1 0 25 0 a12.5 12.5 0 1 0 -25 0z" fill="rgba(255, 255, 255, 1)"></path>
            <path d="M75 525L125 575L725 575L925 375L1025 375" stroke-width="8.33" stroke="rgba(255, 255, 255, 1)"></path>
            <path d="M62.5 525 a12.5 12.5 0 1 0 25 0 a12.5 12.5 0 1 0 -25 0zM1012.5 375 a12.5 12.5 0 1 0 25 0 a12.5 12.5 0 1 0 -25 0z" fill="rgba(255, 255, 255, 1)"></path>
            <path d="M575 225L575 125L625 75L775 75" stroke-width="8.33" stroke="rgba(255, 255, 255, 1)"></path>
            <path d="M562.5 225 a12.5 12.5 0 1 0 25 0 a12.5 12.5 0 1 0 -25 0zM762.5 75 a12.5 12.5 0 1 0 25 0 a12.5 12.5 0 1 0 -25 0z" fill="rgba(255, 255, 255, 1)"></path>
            <path d="M1375 325L1325 325L1225 225L1075 225L975 325L675 325L475 525L425 525" stroke-width="8.33" stroke="rgba(255, 255, 255, 1)"></path>
            <path d="M1362.5 325 a12.5 12.5 0 1 0 25 0 a12.5 12.5 0 1 0 -25 0zM412.5 525 a12.5 12.5 0 1 0 25 0 a12.5 12.5 0 1 0 -25 0z" fill="rgba(255, 255, 255, 1)"></path>
            <path d="M275 375L325 425L325 525" stroke-width="8.33" stroke="rgba(255, 255, 255, 1)"></path>
            <path d="M262.5 375 a12.5 12.5 0 1 0 25 0 a12.5 12.5 0 1 0 -25 0zM312.5 525 a12.5 12.5 0 1 0 25 0 a12.5 12.5 0 1 0 -25 0z" fill="rgba(255, 255, 255, 1)"></path>
            <path d="M475 175L425 225L375 225L275 325" stroke-width="8.33" stroke="rgba(255, 255, 255, 1)"></path>
            <path d="M462.5 175 a12.5 12.5 0 1 0 25 0 a12.5 12.5 0 1 0 -25 0zM262.5 325 a12.5 12.5 0 1 0 25 0 a12.5 12.5 0 1 0 -25 0z" fill="rgba(255, 255, 255, 1)"></path>
            <path d="M675 425L575 525L525 525" stroke-width="8.33" stroke="rgba(255, 255, 255, 1)"></path>
            <path d="M662.5 425 a12.5 12.5 0 1 0 25 0 a12.5 12.5 0 1 0 -25 0zM512.5 525 a12.5 12.5 0 1 0 25 0 a12.5 12.5 0 1 0 -25 0z" fill="rgba(255, 255, 255, 1)"></path>
            <path d="M1125 325L1325 525L1425 525" stroke-width="8.33" stroke="rgba(255, 255, 255, 1)"></path>
            <path d="M1112.5 325 a12.5 12.5 0 1 0 25 0 a12.5 12.5 0 1 0 -25 0zM1412.5 525 a12.5 12.5 0 1 0 25 0 a12.5 12.5 0 1 0 -25 0z" fill="rgba(255, 255, 255, 1)"></path>
            <path d="M1175 125L1425 125" stroke-width="8.33" stroke="rgba(255, 255, 255, 1)"></path>
            <path d="M1162.5 125 a12.5 12.5 0 1 0 25 0 a12.5 12.5 0 1 0 -25 0zM1412.5 125 a12.5 12.5 0 1 0 25 0 a12.5 12.5 0 1 0 -25 0z" fill="rgba(255, 255, 255, 1)"></path>
            <path d="M275 125L225 75L225 25" stroke-width="8.33" stroke="rgba(255, 255, 255, 1)"></path>
            <path d="M262.5 125 a12.5 12.5 0 1 0 25 0 a12.5 12.5 0 1 0 -25 0zM212.5 25 a12.5 12.5 0 1 0 25 0 a12.5 12.5 0 1 0 -25 0z" fill="rgba(255, 255, 255, 1)"></path>
            <path d="M125 525L275 525" stroke-width="8.33" stroke="rgba(255, 255, 255, 1)"></path>
            <path d="M112.5 525 a12.5 12.5 0 1 0 25 0 a12.5 12.5 0 1 0 -25 0zM262.5 525 a12.5 12.5 0 1 0 25 0 a12.5 12.5 0 1 0 -25 0z" fill="rgba(255, 255, 255, 1)"></path>
            <path d="M25 175L25 25" stroke-width="8.33" stroke="rgba(255, 255, 255, 1)"></path>
            <path d="M12.5 175 a12.5 12.5 0 1 0 25 0 a12.5 12.5 0 1 0 -25 0zM12.5 25 a12.5 12.5 0 1 0 25 0 a12.5 12.5 0 1 0 -25 0z" fill="rgba(255, 255, 255, 1)"></path>
            <path d="M525 425L775 175L775 125" stroke-width="8.33" stroke="rgba(255, 255, 255, 1)"></path>
            <path d="M512.5 425 a12.5 12.5 0 1 0 25 0 a12.5 12.5 0 1 0 -25 0zM762.5 125 a12.5 12.5 0 1 0 25 0 a12.5 12.5 0 1 0 -25 0z" fill="rgba(255, 255, 255, 1)"></path>
            <path d="M1075 475L875 475L825 525" stroke-width="8.33" stroke="rgba(255, 255, 255, 1)"></path>
            <path d="M1062.5 475 a12.5 12.5 0 1 0 25 0 a12.5 12.5 0 1 0 -25 0zM812.5 525 a12.5 12.5 0 1 0 25 0 a12.5 12.5 0 1 0 -25 0z" fill="rgba(255, 255, 255, 1)"></path>
            <path d="M1425 275L1325 275L1275 225" stroke-width="8.33" stroke="rgba(255, 255, 255, 1)"></path>
            <path d="M1412.5 275 a12.5 12.5 0 1 0 25 0 a12.5 12.5 0 1 0 -25 0zM1262.5 225 a12.5 12.5 0 1 0 25 0 a12.5 12.5 0 1 0 -25 0z" fill="rgba(255, 255, 255, 1)"></path>
            <path d="M75 375L25 325L25 225L125 125L125 25" stroke-width="8.33" stroke="rgba(255, 255, 255, 1)"></path>
            <path d="M62.5 375 a12.5 12.5 0 1 0 25 0 a12.5 12.5 0 1 0 -25 0zM112.5 25 a12.5 12.5 0 1 0 25 0 a12.5 12.5 0 1 0 -25 0z" fill="rgba(255, 255, 255, 1)"></path>
            <path d="M975 125L1125 125L1175 75L1425 75" stroke-width="8.33" stroke="rgba(255, 255, 255, 1)"></path>
            <path d="M962.5 125 a12.5 12.5 0 1 0 25 0 a12.5 12.5 0 1 0 -25 0zM1412.5 75 a12.5 12.5 0 1 0 25 0 a12.5 12.5 0 1 0 -25 0z" fill="rgba(255, 255, 255, 1)"></path>
            <path d="M275 225L75 225" stroke-width="8.33" stroke="rgba(255, 255, 255, 1)"></path>
            <path d="M262.5 225 a12.5 12.5 0 1 0 25 0 a12.5 12.5 0 1 0 -25 0zM62.5 225 a12.5 12.5 0 1 0 25 0 a12.5 12.5 0 1 0 -25 0z" fill="rgba(255, 255, 255, 1)"></path>
            <path d="M375 425L425 475L475 475" stroke-width="8.33" stroke="rgba(255, 255, 255, 1)"></path>
            <path d="M362.5 425 a12.5 12.5 0 1 0 25 0 a12.5 12.5 0 1 0 -25 0zM462.5 475 a12.5 12.5 0 1 0 25 0 a12.5 12.5 0 1 0 -25 0z" fill="rgba(255, 255, 255, 1)"></path>
            <path d="M1425 375L1425 475" stroke-width="8.33" stroke="rgba(255, 255, 255, 1)"></path>
            <path d="M1412.5 375 a12.5 12.5 0 1 0 25 0 a12.5 12.5 0 1 0 -25 0zM1412.5 475 a12.5 12.5 0 1 0 25 0 a12.5 12.5 0 1 0 -25 0z" fill="rgba(255, 255, 255, 1)"></path>
            <path d="M1025 325L1225 525L1275 525" stroke-width="8.33" stroke="rgba(255, 255, 255, 1)"></path>
            <path d="M1012.5 325 a12.5 12.5 0 1 0 25 0 a12.5 12.5 0 1 0 -25 0zM1262.5 525 a12.5 12.5 0 1 0 25 0 a12.5 12.5 0 1 0 -25 0z" fill="rgba(255, 255, 255, 1)"></path>
            <path d="M525 375L675 225" stroke-width="8.33" stroke="rgba(255, 255, 255, 1)"></path>
            <path d="M512.5 375 a12.5 12.5 0 1 0 25 0 a12.5 12.5 0 1 0 -25 0zM662.5 225 a12.5 12.5 0 1 0 25 0 a12.5 12.5 0 1 0 -25 0z" fill="rgba(255, 255, 255, 1)"></path>
            <path d="M1025 525L875 525" stroke-width="8.33" stroke="rgba(255, 255, 255, 1)"></path>
            <path d="M1012.5 525 a12.5 12.5 0 1 0 25 0 a12.5 12.5 0 1 0 -25 0zM862.5 525 a12.5 12.5 0 1 0 25 0 a12.5 12.5 0 1 0 -25 0z" fill="rgba(255, 255, 255, 1)"></path>
            <path d="M525 275L375 275L325 325L325 375" stroke-width="8.33" stroke="rgba(255, 255, 255, 1)"></path>
            <path d="M512.5 275 a12.5 12.5 0 1 0 25 0 a12.5 12.5 0 1 0 -25 0zM312.5 375 a12.5 12.5 0 1 0 25 0 a12.5 12.5 0 1 0 -25 0z" fill="rgba(255, 255, 255, 1)"></path>
            <path d="M1075 275L1225 275" stroke-width="8.33" stroke="rgba(255, 255, 255, 1)"></path>
            <path d="M1062.5 275 a12.5 12.5 0 1 0 25 0 a12.5 12.5 0 1 0 -25 0zM1212.5 275 a12.5 12.5 0 1 0 25 0 a12.5 12.5 0 1 0 -25 0z" fill="rgba(255, 255, 255, 1)"></path>
            <path d="M1275 375L1275 425L1325 475L1375 475" stroke-width="8.33" stroke="rgba(255, 255, 255, 1)"></path>
            <path d="M1262.5 375 a12.5 12.5 0 1 0 25 0 a12.5 12.5 0 1 0 -25 0zM1362.5 475 a12.5 12.5 0 1 0 25 0 a12.5 12.5 0 1 0 -25 0z" fill="rgba(255, 255, 255, 1)"></path>
            <path d="M225 125L275 175L325 175L425 75" stroke-width="8.33" stroke="rgba(255, 255, 255, 1)"></path>
            <path d="M212.5 125 a12.5 12.5 0 1 0 25 0 a12.5 12.5 0 1 0 -25 0zM412.5 75 a12.5 12.5 0 1 0 25 0 a12.5 12.5 0 1 0 -25 0z" fill="rgba(255, 255, 255, 1)"></path>
            <path d="M525 125L525 175L475 225" stroke-width="8.33" stroke="rgba(255, 255, 255, 1)"></path>
            <path d="M512.5 125 a12.5 12.5 0 1 0 25 0 a12.5 12.5 0 1 0 -25 0zM462.5 225 a12.5 12.5 0 1 0 25 0 a12.5 12.5 0 1 0 -25 0z" fill="rgba(255, 255, 255, 1)"></path>
            <path d="M225 275L125 375" stroke-width="8.33" stroke="rgba(255, 255, 255, 1)"></path>
            <path d="M212.5 275 a12.5 12.5 0 1 0 25 0 a12.5 12.5 0 1 0 -25 0zM112.5 375 a12.5 12.5 0 1 0 25 0 a12.5 12.5 0 1 0 -25 0z" fill="rgba(255, 255, 255, 1)"></path>
            <path d="M375 75L275 75" stroke-width="8.33" stroke="rgba(255, 255, 255, 1)"></path>
            <path d="M362.5 75 a12.5 12.5 0 1 0 25 0 a12.5 12.5 0 1 0 -25 0zM262.5 75 a12.5 12.5 0 1 0 25 0 a12.5 12.5 0 1 0 -25 0z" fill="rgba(255, 255, 255, 1)"></path>
            <path d="M425 425L425 325" stroke-width="8.33" stroke="rgba(255, 255, 255, 1)"></path>
            <path d="M412.5 425 a12.5 12.5 0 1 0 25 0 a12.5 12.5 0 1 0 -25 0zM412.5 325 a12.5 12.5 0 1 0 25 0 a12.5 12.5 0 1 0 -25 0z" fill="rgba(255, 255, 255, 1)"></path>
            <path d="M725 525L875 375" stroke-width="8.33" stroke="rgba(255, 255, 255, 1)"></path>
            <path d="M712.5 525 a12.5 12.5 0 1 0 25 0 a12.5 12.5 0 1 0 -25 0zM862.5 375 a12.5 12.5 0 1 0 25 0 a12.5 12.5 0 1 0 -25 0z" fill="rgba(255, 255, 255, 1)"></path>
            <path d="M825 375L725 375" stroke-width="8.33" stroke="rgba(255, 255, 255, 1)"></path>
            <path d="M812.5 375 a12.5 12.5 0 1 0 25 0 a12.5 12.5 0 1 0 -25 0zM712.5 375 a12.5 12.5 0 1 0 25 0 a12.5 12.5 0 1 0 -25 0z" fill="rgba(255, 255, 255, 1)"></path>
        </g>
    </g>
    <defs>
        <mask id="SvgjsMask1071">
            <rect width="1440" height="600" fill="#ffffff"></rect>
        </mask>
        <mask id="SvgjsMask1072">
            <rect width="1440" height="600" fill="white"></rect>
            <path d="M418.75 175 a6.25 6.25 0 1 0 12.5 0 a6.25 6.25 0 1 0 -12.5 0zM1368.75 25 a6.25 6.25 0 1 0 12.5 0 a6.25 6.25 0 1 0 -12.5 0z" fill="black"></path>
            <path d="M768.75 575 a6.25 6.25 0 1 0 12.5 0 a6.25 6.25 0 1 0 -12.5 0zM1418.75 575 a6.25 6.25 0 1 0 12.5 0 a6.25 6.25 0 1 0 -12.5 0z" fill="black"></path>
            <path d="M818.75 275 a6.25 6.25 0 1 0 12.5 0 a6.25 6.25 0 1 0 -12.5 0zM818.75 75 a6.25 6.25 0 1 0 12.5 0 a6.25 6.25 0 1 0 -12.5 0z" fill="black"></path>
            <path d="M1268.75 175 a6.25 6.25 0 1 0 12.5 0 a6.25 6.25 0 1 0 -12.5 0zM868.75 175 a6.25 6.25 0 1 0 12.5 0 a6.25 6.25 0 1 0 -12.5 0z" fill="black"></path>
            <path d="M468.75 75 a6.25 6.25 0 1 0 12.5 0 a6.25 6.25 0 1 0 -12.5 0zM18.75 575 a6.25 6.25 0 1 0 12.5 0 a6.25 6.25 0 1 0 -12.5 0z" fill="black"></path>
            <path d="M268.75 25 a6.25 6.25 0 1 0 12.5 0 a6.25 6.25 0 1 0 -12.5 0zM518.75 25 a6.25 6.25 0 1 0 12.5 0 a6.25 6.25 0 1 0 -12.5 0z" fill="black"></path>
            <path d="M68.75 525 a6.25 6.25 0 1 0 12.5 0 a6.25 6.25 0 1 0 -12.5 0zM1018.75 375 a6.25 6.25 0 1 0 12.5 0 a6.25 6.25 0 1 0 -12.5 0z" fill="black"></path>
            <path d="M568.75 225 a6.25 6.25 0 1 0 12.5 0 a6.25 6.25 0 1 0 -12.5 0zM768.75 75 a6.25 6.25 0 1 0 12.5 0 a6.25 6.25 0 1 0 -12.5 0z" fill="black"></path>
            <path d="M1368.75 325 a6.25 6.25 0 1 0 12.5 0 a6.25 6.25 0 1 0 -12.5 0zM418.75 525 a6.25 6.25 0 1 0 12.5 0 a6.25 6.25 0 1 0 -12.5 0z" fill="black"></path>
            <path d="M268.75 375 a6.25 6.25 0 1 0 12.5 0 a6.25 6.25 0 1 0 -12.5 0zM318.75 525 a6.25 6.25 0 1 0 12.5 0 a6.25 6.25 0 1 0 -12.5 0z" fill="black"></path>
            <path d="M468.75 175 a6.25 6.25 0 1 0 12.5 0 a6.25 6.25 0 1 0 -12.5 0zM268.75 325 a6.25 6.25 0 1 0 12.5 0 a6.25 6.25 0 1 0 -12.5 0z" fill="black"></path>
            <path d="M668.75 425 a6.25 6.25 0 1 0 12.5 0 a6.25 6.25 0 1 0 -12.5 0zM518.75 525 a6.25 6.25 0 1 0 12.5 0 a6.25 6.25 0 1 0 -12.5 0z" fill="black"></path>
            <path d="M1118.75 325 a6.25 6.25 0 1 0 12.5 0 a6.25 6.25 0 1 0 -12.5 0zM1418.75 525 a6.25 6.25 0 1 0 12.5 0 a6.25 6.25 0 1 0 -12.5 0z" fill="black"></path>
            <path d="M1168.75 125 a6.25 6.25 0 1 0 12.5 0 a6.25 6.25 0 1 0 -12.5 0zM1418.75 125 a6.25 6.25 0 1 0 12.5 0 a6.25 6.25 0 1 0 -12.5 0z" fill="black"></path>
            <path d="M268.75 125 a6.25 6.25 0 1 0 12.5 0 a6.25 6.25 0 1 0 -12.5 0zM218.75 25 a6.25 6.25 0 1 0 12.5 0 a6.25 6.25 0 1 0 -12.5 0z" fill="black"></path>
            <path d="M118.75 525 a6.25 6.25 0 1 0 12.5 0 a6.25 6.25 0 1 0 -12.5 0zM268.75 525 a6.25 6.25 0 1 0 12.5 0 a6.25 6.25 0 1 0 -12.5 0z" fill="black"></path>
            <path d="M18.75 175 a6.25 6.25 0 1 0 12.5 0 a6.25 6.25 0 1 0 -12.5 0zM18.75 25 a6.25 6.25 0 1 0 12.5 0 a6.25 6.25 0 1 0 -12.5 0z" fill="black"></path>
            <path d="M518.75 425 a6.25 6.25 0 1 0 12.5 0 a6.25 6.25 0 1 0 -12.5 0zM768.75 125 a6.25 6.25 0 1 0 12.5 0 a6.25 6.25 0 1 0 -12.5 0z" fill="black"></path>
            <path d="M1068.75 475 a6.25 6.25 0 1 0 12.5 0 a6.25 6.25 0 1 0 -12.5 0zM818.75 525 a6.25 6.25 0 1 0 12.5 0 a6.25 6.25 0 1 0 -12.5 0z" fill="black"></path>
            <path d="M1418.75 275 a6.25 6.25 0 1 0 12.5 0 a6.25 6.25 0 1 0 -12.5 0zM1268.75 225 a6.25 6.25 0 1 0 12.5 0 a6.25 6.25 0 1 0 -12.5 0z" fill="black"></path>
            <path d="M68.75 375 a6.25 6.25 0 1 0 12.5 0 a6.25 6.25 0 1 0 -12.5 0zM118.75 25 a6.25 6.25 0 1 0 12.5 0 a6.25 6.25 0 1 0 -12.5 0z" fill="black"></path>
            <path d="M968.75 125 a6.25 6.25 0 1 0 12.5 0 a6.25 6.25 0 1 0 -12.5 0zM1418.75 75 a6.25 6.25 0 1 0 12.5 0 a6.25 6.25 0 1 0 -12.5 0z" fill="black"></path>
            <path d="M268.75 225 a6.25 6.25 0 1 0 12.5 0 a6.25 6.25 0 1 0 -12.5 0zM68.75 225 a6.25 6.25 0 1 0 12.5 0 a6.25 6.25 0 1 0 -12.5 0z" fill="black"></path>
            <path d="M368.75 425 a6.25 6.25 0 1 0 12.5 0 a6.25 6.25 0 1 0 -12.5 0zM468.75 475 a6.25 6.25 0 1 0 12.5 0 a6.25 6.25 0 1 0 -12.5 0z" fill="black"></path>
            <path d="M1418.75 375 a6.25 6.25 0 1 0 12.5 0 a6.25 6.25 0 1 0 -12.5 0zM1418.75 475 a6.25 6.25 0 1 0 12.5 0 a6.25 6.25 0 1 0 -12.5 0z" fill="black"></path>
            <path d="M1018.75 325 a6.25 6.25 0 1 0 12.5 0 a6.25 6.25 0 1 0 -12.5 0zM1268.75 525 a6.25 6.25 0 1 0 12.5 0 a6.25 6.25 0 1 0 -12.5 0z" fill="black"></path>
            <path d="M518.75 375 a6.25 6.25 0 1 0 12.5 0 a6.25 6.25 0 1 0 -12.5 0zM668.75 225 a6.25 6.25 0 1 0 12.5 0 a6.25 6.25 0 1 0 -12.5 0z" fill="black"></path>
            <path d="M1018.75 525 a6.25 6.25 0 1 0 12.5 0 a6.25 6.25 0 1 0 -12.5 0zM868.75 525 a6.25 6.25 0 1 0 12.5 0 a6.25 6.25 0 1 0 -12.5 0z" fill="black"></path>
            <path d="M518.75 275 a6.25 6.25 0 1 0 12.5 0 a6.25 6.25 0 1 0 -12.5 0zM318.75 375 a6.25 6.25 0 1 0 12.5 0 a6.25 6.25 0 1 0 -12.5 0z" fill="black"></path>
            <path d="M1068.75 275 a6.25 6.25 0 1 0 12.5 0 a6.25 6.25 0 1 0 -12.5 0zM1218.75 275 a6.25 6.25 0 1 0 12.5 0 a6.25 6.25 0 1 0 -12.5 0z" fill="black"></path>
            <path d="M1268.75 375 a6.25 6.25 0 1 0 12.5 0 a6.25 6.25 0 1 0 -12.5 0zM1368.75 475 a6.25 6.25 0 1 0 12.5 0 a6.25 6.25 0 1 0 -12.5 0z" fill="black"></path>
            <path d="M218.75 125 a6.25 6.25 0 1 0 12.5 0 a6.25 6.25 0 1 0 -12.5 0zM418.75 75 a6.25 6.25 0 1 0 12.5 0 a6.25 6.25 0 1 0 -12.5 0z" fill="black"></path>
            <path d="M518.75 125 a6.25 6.25 0 1 0 12.5 0 a6.25 6.25 0 1 0 -12.5 0zM468.75 225 a6.25 6.25 0 1 0 12.5 0 a6.25 6.25 0 1 0 -12.5 0z" fill="black"></path>
            <path d="M218.75 275 a6.25 6.25 0 1 0 12.5 0 a6.25 6.25 0 1 0 -12.5 0zM118.75 375 a6.25 6.25 0 1 0 12.5 0 a6.25 6.25 0 1 0 -12.5 0z" fill="black"></path>
            <path d="M368.75 75 a6.25 6.25 0 1 0 12.5 0 a6.25 6.25 0 1 0 -12.5 0zM268.75 75 a6.25 6.25 0 1 0 12.5 0 a6.25 6.25 0 1 0 -12.5 0z" fill="black"></path>
            <path d="M418.75 425 a6.25 6.25 0 1 0 12.5 0 a6.25 6.25 0 1 0 -12.5 0zM418.75 325 a6.25 6.25 0 1 0 12.5 0 a6.25 6.25 0 1 0 -12.5 0z" fill="black"></path>
            <path d="M718.75 525 a6.25 6.25 0 1 0 12.5 0 a6.25 6.25 0 1 0 -12.5 0zM868.75 375 a6.25 6.25 0 1 0 12.5 0 a6.25 6.25 0 1 0 -12.5 0z" fill="black"></path>
            <path d="M818.75 375 a6.25 6.25 0 1 0 12.5 0 a6.25 6.25 0 1 0 -12.5 0zM718.75 375 a6.25 6.25 0 1 0 12.5 0 a6.25 6.25 0 1 0 -12.5 0z" fill="black"></path>
        </mask>
    </defs>
</svg>