<svg id="portfolio-bg" xmlns="http://www.w3.org/2000/svg" version="1.1" xmlns:xlink="http://www.w3.org/1999/xlink" xmlns:svgjs="http://svgjs.dev/svgjs" width="1440" height="560" preserveAspectRatio="none" viewBox="0 0 1440 560">
    <g mask="url(&quot;#SvgjsMask1868&quot;)" fill="none">
        <rect width="1440" height="560" x="0" y="0" fill="url(&quot;#SvgjsLinearGradient1869&quot;)"></rect>
        <g mask="url(&quot;#SvgjsMask1870&quot;)">
            <path d="M1425 575L875 25L475 25" stroke-width="8.33" stroke="rgba(0, 102, 204, 1)"></path>
            <path d="M1412.5 575 a12.5 12.5 0 1 0 25 0 a12.5 12.5 0 1 0 -25 0zM462.5 25 a12.5 12.5 0 1 0 25 0 a12.5 12.5 0 1 0 -25 0z" fill="rgba(0, 102, 204, 1)"></path>
            <path d="M675 325L525 475L525 575" stroke-width="8.33" stroke="rgba(0, 102, 204, 1)"></path>
            <path d="M662.5 325 a12.5 12.5 0 1 0 25 0 a12.5 12.5 0 1 0 -25 0zM512.5 575 a12.5 12.5 0 1 0 25 0 a12.5 12.5 0 1 0 -25 0z" fill="rgba(0, 102, 204, 1)"></path>
            <path d="M225 175L225 425L325 525L325 575" stroke-width="8.33" stroke="rgba(0, 102, 204, 1)"></path>
            <path d="M212.5 175 a12.5 12.5 0 1 0 25 0 a12.5 12.5 0 1 0 -25 0zM312.5 575 a12.5 12.5 0 1 0 25 0 a12.5 12.5 0 1 0 -25 0z" fill="rgba(0, 102, 204, 1)"></path>
            <path d="M725 425L625 425L575 475L575 575" stroke-width="8.33" stroke="rgba(0, 102, 204, 1)"></path>
            <path d="M712.5 425 a12.5 12.5 0 1 0 25 0 a12.5 12.5 0 1 0 -25 0zM562.5 575 a12.5 12.5 0 1 0 25 0 a12.5 12.5 0 1 0 -25 0z" fill="rgba(0, 102, 204, 1)"></path>
            <path d="M225 75L275 75L325 25L425 25L775 375L775 575" stroke-width="8.33" stroke="rgba(0, 102, 204, 1)"></path>
            <path d="M212.5 75 a12.5 12.5 0 1 0 25 0 a12.5 12.5 0 1 0 -25 0zM762.5 575 a12.5 12.5 0 1 0 25 0 a12.5 12.5 0 1 0 -25 0z" fill="rgba(0, 102, 204, 1)"></path>
            <path d="M825 75L675 225" stroke-width="8.33" stroke="rgba(0, 102, 204, 1)"></path>
            <path d="M812.5 75 a12.5 12.5 0 1 0 25 0 a12.5 12.5 0 1 0 -25 0z" fill="rgba(0, 102, 204, 1)"></path>
            <path d="M662.5 225 a12.5 12.5 0 1 0 25 0 a12.5 12.5 0 1 0 -25 0z" fill="rgba(0, 102, 204, 1)"></path>
            <path d="M975 75L925 75" stroke-width="8.33" stroke="rgba(0, 102, 204, 1)"></path>
            <path d="M962.5 75 a12.5 12.5 0 1 0 25 0 a12.5 12.5 0 1 0 -25 0z" fill="rgba(0, 102, 204, 1)"></path>
            <path d="M912.5 75 a12.5 12.5 0 1 0 25 0 a12.5 12.5 0 1 0 -25 0z" fill="rgba(0, 102, 204, 1)"></path>
            <path d="M325 75L375 25L475 25" stroke-width="8.33" stroke="rgba(0, 102, 204, 1)"></path>
            <path d="M312.5 75 a12.5 12.5 0 1 0 25 0 a12.5 12.5 0 1 0 -25 0zM462.5 25 a12.5 12.5 0 1 0 25 0 a12.5 12.5 0 1 0 -25 0z" fill="rgba(0, 102, 204, 1)"></path>
            <path d="M1225 175L1175 175" stroke-width="8.33" stroke="rgba(0, 102, 204, 1)"></path>
            <path d="M1212.5 175 a12.5 12.5 0 1 0 25 0 a12.5 12.5 0 1 0 -25 0z" fill="rgba(0, 102, 204, 1)"></path>
            <path d="M1162.5 175 a12.5 12.5 0 1 0 25 0 a12.5 12.5 0 1 0 -25 0z" fill="rgba(0, 102, 204, 1)"></path>
            <path d="M475 225L525 175" stroke-width="8.33" stroke="rgba(0, 102, 204, 1)"></path>
            <path d="M462.5 225 a12.5 12.5 0 1 0 25 0 a12.5 12.5 0 1 0 -25 0z" fill="rgba(0, 102, 204, 1)"></path>
            <path d="M512.5 175 a12.5 12.5 0 1 0 25 0 a12.5 12.5 0 1 0 -25 0z" fill="rgba(0, 102, 204, 1)"></path>
            <path d="M1225 375L1175 375" stroke-width="8.33" stroke="rgba(0, 102, 204, 1)"></path>
            <path d="M1212.5 375 a12.5 12.5 0 1 0 25 0 a12.5 12.5 0 1 0 -25 0z" fill="rgba(0, 102, 204, 1)"></path>
            <path d="M1162.5 375 a12.5 12.5 0 1 0 25 0 a12.5 12.5 0 1 0 -25 0z" fill="rgba(0, 102, 204, 1)"></path>
            <path d="M475 425L525 375" stroke-width="8.33" stroke="rgba(0, 102, 204, 1)"></path>
            <path d="M462.5 425 a12.5 12.5 0 1 0 25 0 a12.5 12.5 0 1 0 -25 0z" fill="rgba(0, 102, 204, 1)"></path>
            <path d="M512.5 375 a12.5 12.5 0 1 0 25 0 a12.5 12.5 0 1 0 -25 0z" fill="rgba(0, 102, 204, 1)"></path>
        </g>
    </g>
</svg>
