
<svg xmlns="http://www.w3.org/2000/svg" version="1.1" xmlns:xlink="http://www.w3.org/1999/xlink" xmlns:svgjs="http://svgjs.dev/svgjs" width="1440" height="600" preserveAspectRatio="none" viewBox="0 0 1440 600">
    <g mask="url(&quot;#SvgjsMask1156&quot;)" fill="none">
        <g mask="url(&quot;#SvgjsMask1157&quot;)">
            <path d="M720 400L336 16L176 16L112 80" stroke-width="5.33" stroke="rgba(19, 18, 18, 0.19)"></path>
            <path d="M712 400 a8 8 0 1 0 16 0 a8 8 0 1 0 -16 0zM104 80 a8 8 0 1 0 16 0 a8 8 0 1 0 -16 0z" fill="rgba(19, 18, 18, 0.19)"></path>
            <path d="M144 240L496 592L624 592L752 464" stroke-width="5.33" stroke="rgba(19, 18, 18, 0.19)"></path>
            <path d="M136 240 a8 8 0 1 0 16 0 a8 8 0 1 0 -16 0zM744 464 a8 8 0 1 0 16 0 a8 8 0 1 0 -16 0z" fill="rgba(19, 18, 18, 0.19)"></path>
            <path d="M688 208L784 208L1072 496L1264 496L1296 464" stroke-width="5.33" stroke="rgba(19, 18, 18, 0.19)"></path>
            <path d="M680 208 a8 8 0 1 0 16 0 a8 8 0 1 0 -16 0zM1288 464 a8 8 0 1 0 16 0 a8 8 0 1 0 -16 0z" fill="rgba(19, 18, 18, 0.19)"></path>
            <path d="M496 496L496 208L336 48L176 48" stroke-width="5.33" stroke="rgba(19, 18, 18, 0.19)"></path>
            <path d="M488 496 a8 8 0 1 0 16 0 a8 8 0 1 0 -16 0zM168 48 a8 8 0 1 0 16 0 a8 8 0 1 0 -16 0z" fill="rgba(19, 18, 18, 0.19)"></path>
            <path d="M112 400L16 496L16 592" stroke-width="5.33" stroke="rgba(19, 18, 18, 0.19)"></path>
            <path d="M104 400 a8 8 0 1 0 16 0 a8 8 0 1 0 -16 0zM8 592 a8 8 0 1 0 16 0 a8 8 0 1 0 -16 0z" fill="rgba(19, 18, 18, 0.19)"></path>
            <path d="M560 176L528 176L368 16" stroke-width="5.33" stroke="rgba(19, 18, 18, 0.19)"></path>
            <path d="M552 176 a8 8 0 1 0 16 0 a8 8 0 1 0 -16 0zM360 16 a8 8 0 1 0 16 0 a8 8 0 1 0 -16 0z" fill="rgba(19, 18, 18, 0.19)"></path>
            <path d="M48 336L16 304L16 16" stroke-width="5.33" stroke="rgba(19, 18, 18, 0.19)"></path>
            <path d="M40 336 a8 8 0 1 0 16 0 a8 8 0 1 0 -16 0zM8 16 a8 8 0 1 0 16 0 a8 8 0 1 0 -16 0z" fill="rgba(19, 18, 18, 0.19)"></path>
            <path d="M1424 304L1360 304L1296 368L1264 368L912 16L816 16" stroke-width="5.33" stroke="rgba(19, 18, 18, 0.19)"></path>
            <path d="M1416 304 a8 8 0 1 0 16 0 a8 8 0 1 0 -16 0zM808 16 a8 8 0 1 0 16 0 a8 8 0 1 0 -16 0z" fill="rgba(19, 18, 18, 0.19)"></path>
            <path d="M240 176L240 80" stroke-width="5.33" stroke="rgba(19, 18, 18, 0.19)"></path>
            <path d="M232 176 a8 8 0 1 0 16 0 a8 8 0 1 0 -16 0zM232 80 a8 8 0 1 0 16 0 a8 8 0 1 0 -16 0z" fill="rgba(19, 18, 18, 0.19)"></path>
            <path d="M1264 400L1424 560L1424 592" stroke-width="5.33" stroke="rgba(19, 18, 18, 0.19)"></path>
            <path d="M1256 400 a8 8 0 1 0 16 0 a8 8 0 1 0 -16 0zM1416 592 a8 8 0 1 0 16 0 a8 8 0 1 0 -16 0z" fill="rgba(19, 18, 18, 0.19)"></path>
            <path d="M720 48L912 48L1232 368L1232 432L1200 464" stroke-width="5.33" stroke="rgba(19, 18, 18, 0.19)"></path>
            <path d="M712 48 a8 8 0 1 0 16 0 a8 8 0 1 0 -16 0zM1192 464 a8 8 0 1 0 16 0 a8 8 0 1 0 -16 0z" fill="rgba(19, 18, 18, 0.19)"></path>
            <path d="M592 16L784 16" stroke-width="5.33" stroke="rgba(19, 18, 18, 0.19)"></path>
            <path d="M584 16 a8 8 0 1 0 16 0 a8 8 0 1 0 -16 0zM776 16 a8 8 0 1 0 16 0 a8 8 0 1 0 -16 0z" fill="rgba(19, 18, 18, 0.19)"></path>
            <path d="M976 496L1072 592L1328 592L1360 560L1360 528L1328 496L1296 496L1232 560L1168 560" stroke-width="5.33" stroke="rgba(19, 18, 18, 0.19)"></path>
            <path d="M968 496 a8 8 0 1 0 16 0 a8 8 0 1 0 -16 0zM1160 560 a8 8 0 1 0 16 0 a8 8 0 1 0 -16 0z" fill="rgba(19, 18, 18, 0.19)"></path>
            <path d="M1072 304L1200 432" stroke-width="5.33" stroke="rgba(19, 18, 18, 0.19)"></path>
            <path d="M1064 304 a8 8 0 1 0 16 0 a8 8 0 1 0 -16 0zM1192 432 a8 8 0 1 0 16 0 a8 8 0 1 0 -16 0z" fill="rgba(19, 18, 18, 0.19)"></path>
            <path d="M816 368L816 272L784 240L592 240L560 208" stroke-width="5.33" stroke="rgba(19, 18, 18, 0.19)"></path>
            <path d="M808 368 a8 8 0 1 0 16 0 a8 8 0 1 0 -16 0zM552 208 a8 8 0 1 0 16 0 a8 8 0 1 0 -16 0z" fill="rgba(19, 18, 18, 0.19)"></path>
            <path d="M560 368L560 272L528 240" stroke-width="5.33" stroke="rgba(19, 18, 18, 0.19)"></path>
            <path d="M552 368 a8 8 0 1 0 16 0 a8 8 0 1 0 -16 0zM520 240 a8 8 0 1 0 16 0 a8 8 0 1 0 -16 0z" fill="rgba(19, 18, 18, 0.19)"></path>
            <path d="M528 16L592 80L912 80" stroke-width="5.33" stroke="rgba(19, 18, 18, 0.19)"></path>
            <path d="M520 16 a8 8 0 1 0 16 0 a8 8 0 1 0 -16 0zM904 80 a8 8 0 1 0 16 0 a8 8 0 1 0 -16 0z" fill="rgba(19, 18, 18, 0.19)"></path>
            <path d="M1072 240L1072 272L1040 304L1040 432L1072 464L1168 464" stroke-width="5.33" stroke="rgba(19, 18, 18, 0.19)"></path>
            <path d="M1064 240 a8 8 0 1 0 16 0 a8 8 0 1 0 -16 0zM1160 464 a8 8 0 1 0 16 0 a8 8 0 1 0 -16 0z" fill="rgba(19, 18, 18, 0.19)"></path>
            <path d="M464 368L464 336L272 144L272 80" stroke-width="5.33" stroke="rgba(19, 18, 18, 0.19)"></path>
            <path d="M456 368 a8 8 0 1 0 16 0 a8 8 0 1 0 -16 0zM264 80 a8 8 0 1 0 16 0 a8 8 0 1 0 -16 0z" fill="rgba(19, 18, 18, 0.19)"></path>
            <path d="M80 336L16 400L16 464" stroke-width="5.33" stroke="rgba(19, 18, 18, 0.19)"></path>
            <path d="M72 336 a8 8 0 1 0 16 0 a8 8 0 1 0 -16 0zM8 464 a8 8 0 1 0 16 0 a8 8 0 1 0 -16 0z" fill="rgba(19, 18, 18, 0.19)"></path>
            <path d="M1360 240L1424 240" stroke-width="5.33" stroke="rgba(19, 18, 18, 0.19)"></path>
            <path d="M1352 240 a8 8 0 1 0 16 0 a8 8 0 1 0 -16 0zM1416 240 a8 8 0 1 0 16 0 a8 8 0 1 0 -16 0z" fill="rgba(19, 18, 18, 0.19)"></path>
            <path d="M976 240L848 112L496 112L464 80L464 48L432 16L400 16" stroke-width="5.33" stroke="rgba(19, 18, 18, 0.19)"></path>
            <path d="M968 240 a8 8 0 1 0 16 0 a8 8 0 1 0 -16 0zM392 16 a8 8 0 1 0 16 0 a8 8 0 1 0 -16 0z" fill="rgba(19, 18, 18, 0.19)"></path>
            <path d="M848 368L848 304" stroke-width="5.33" stroke="rgba(19, 18, 18, 0.19)"></path>
            <path d="M840 368 a8 8 0 1 0 16 0 a8 8 0 1 0 -16 0zM840 304 a8 8 0 1 0 16 0 a8 8 0 1 0 -16 0z" fill="rgba(19, 18, 18, 0.19)"></path>
            <path d="M560 496L496 560" stroke-width="5.33" stroke="rgba(19, 18, 18, 0.19)"></path>
            <path d="M552 496 a8 8 0 1 0 16 0 a8 8 0 1 0 -16 0zM488 560 a8 8 0 1 0 16 0 a8 8 0 1 0 -16 0z" fill="rgba(19, 18, 18, 0.19)"></path>
            <path d="M144 304L48 400L48 432" stroke-width="5.33" stroke="rgba(19, 18, 18, 0.19)"></path>
            <path d="M136 304 a8 8 0 1 0 16 0 a8 8 0 1 0 -16 0zM40 432 a8 8 0 1 0 16 0 a8 8 0 1 0 -16 0z" fill="rgba(19, 18, 18, 0.19)"></path>
            <path d="M1424 48L1200 272" stroke-width="5.33" stroke="rgba(19, 18, 18, 0.19)"></path>
            <path d="M1416 48 a8 8 0 1 0 16 0 a8 8 0 1 0 -16 0zM1192 272 a8 8 0 1 0 16 0 a8 8 0 1 0 -16 0z" fill="rgba(19, 18, 18, 0.19)"></path>
            <path d="M1104 368L1072 400L1072 432" stroke-width="5.33" stroke="rgba(19, 18, 18, 0.19)"></path>
            <path d="M1096 368 a8 8 0 1 0 16 0 a8 8 0 1 0 -16 0zM1064 432 a8 8 0 1 0 16 0 a8 8 0 1 0 -16 0z" fill="rgba(19, 18, 18, 0.19)"></path>
            <path d="M944 496L848 400L752 400L624 528L624 560" stroke-width="5.33" stroke="rgba(19, 18, 18, 0.19)"></path>
            <path d="M936 496 a8 8 0 1 0 16 0 a8 8 0 1 0 -16 0zM616 560 a8 8 0 1 0 16 0 a8 8 0 1 0 -16 0z" fill="rgba(19, 18, 18, 0.19)"></path>
            <path d="M592 336L624 336L688 400L688 432L624 496L592 496L528 432L528 272" stroke-width="5.33" stroke="rgba(19, 18, 18, 0.19)"></path>
            <path d="M584 336 a8 8 0 1 0 16 0 a8 8 0 1 0 -16 0zM520 272 a8 8 0 1 0 16 0 a8 8 0 1 0 -16 0z" fill="rgba(19, 18, 18, 0.19)"></path>
            <path d="M848 560L912 496" stroke-width="5.33" stroke="rgba(19, 18, 18, 0.19)"></path>
            <path d="M840 560 a8 8 0 1 0 16 0 a8 8 0 1 0 -16 0zM904 496 a8 8 0 1 0 16 0 a8 8 0 1 0 -16 0z" fill="rgba(19, 18, 18, 0.19)"></path>
            <path d="M816 432L816 592" stroke-width="5.33" stroke="rgba(19, 18, 18, 0.19)"></path>
            <path d="M808 432 a8 8 0 1 0 16 0 a8 8 0 1 0 -16 0zM808 592 a8 8 0 1 0 16 0 a8 8 0 1 0 -16 0z" fill="rgba(19, 18, 18, 0.19)"></path>
            <path d="M1008 272L1040 240L1040 208L976 144L912 144L880 112" stroke-width="5.33" stroke="rgba(19, 18, 18, 0.19)"></path>
            <path d="M1000 272 a8 8 0 1 0 16 0 a8 8 0 1 0 -16 0zM872 112 a8 8 0 1 0 16 0 a8 8 0 1 0 -16 0z" fill="rgba(19, 18, 18, 0.19)"></path>
            <path d="M1168 240L944 16" stroke-width="5.33" stroke="rgba(19, 18, 18, 0.19)"></path>
            <path d="M1160 240 a8 8 0 1 0 16 0 a8 8 0 1 0 -16 0zM936 16 a8 8 0 1 0 16 0 a8 8 0 1 0 -16 0z" fill="rgba(19, 18, 18, 0.19)"></path>
            <path d="M400 144L304 144" stroke-width="5.33" stroke="rgba(19, 18, 18, 0.19)"></path>
            <path d="M392 144 a8 8 0 1 0 16 0 a8 8 0 1 0 -16 0zM296 144 a8 8 0 1 0 16 0 a8 8 0 1 0 -16 0z" fill="rgba(19, 18, 18, 0.19)"></path>
            <path d="M1040 16L1200 176L1200 240" stroke-width="5.33" stroke="rgba(19, 18, 18, 0.19)"></path>
            <path d="M1032 16 a8 8 0 1 0 16 0 a8 8 0 1 0 -16 0zM1192 240 a8 8 0 1 0 16 0 a8 8 0 1 0 -16 0z" fill="rgba(19, 18, 18, 0.19)"></path>
            <path d="M1424 528L1360 464L1360 336" stroke-width="5.33" stroke="rgba(19, 18, 18, 0.19)"></path>
            <path d="M1416 528 a8 8 0 1 0 16 0 a8 8 0 1 0 -16 0zM1352 336 a8 8 0 1 0 16 0 a8 8 0 1 0 -16 0z" fill="rgba(19, 18, 18, 0.19)"></path>
            <path d="M1232 48L1104 48L1072 16" stroke-width="5.33" stroke="rgba(19, 18, 18, 0.19)"></path>
            <path d="M1224 48 a8 8 0 1 0 16 0 a8 8 0 1 0 -16 0zM1064 16 a8 8 0 1 0 16 0 a8 8 0 1 0 -16 0z" fill="rgba(19, 18, 18, 0.19)"></path>
            <path d="M496 16L528 48L528 80" stroke-width="5.33" stroke="rgba(19, 18, 18, 0.19)"></path>
            <path d="M488 16 a8 8 0 1 0 16 0 a8 8 0 1 0 -16 0zM520 80 a8 8 0 1 0 16 0 a8 8 0 1 0 -16 0z" fill="rgba(19, 18, 18, 0.19)"></path>
            <path d="M752 176L784 144L848 144L912 208L912 304L1008 400" stroke-width="5.33" stroke="rgba(19, 18, 18, 0.19)"></path>
            <path d="M744 176 a8 8 0 1 0 16 0 a8 8 0 1 0 -16 0zM1000 400 a8 8 0 1 0 16 0 a8 8 0 1 0 -16 0z" fill="rgba(19, 18, 18, 0.19)"></path>
            <path d="M1008 336L976 304L944 304" stroke-width="5.33" stroke="rgba(19, 18, 18, 0.19)"></path>
            <path d="M1000 336 a8 8 0 1 0 16 0 a8 8 0 1 0 -16 0zM936 304 a8 8 0 1 0 16 0 a8 8 0 1 0 -16 0z" fill="rgba(19, 18, 18, 0.19)"></path>
            <path d="M368 560L400 592L464 592" stroke-width="5.33" stroke="rgba(19, 18, 18, 0.19)"></path>
            <path d="M360 560 a8 8 0 1 0 16 0 a8 8 0 1 0 -16 0zM456 592 a8 8 0 1 0 16 0 a8 8 0 1 0 -16 0z" fill="rgba(19, 18, 18, 0.19)"></path>
            <path d="M400 176L336 176" stroke-width="5.33" stroke="rgba(19, 18, 18, 0.19)"></path>
            <path d="M392 176 a8 8 0 1 0 16 0 a8 8 0 1 0 -16 0zM328 176 a8 8 0 1 0 16 0 a8 8 0 1 0 -16 0z" fill="rgba(19, 18, 18, 0.19)"></path>
            <path d="M80 464L48 496L48 592" stroke-width="5.33" stroke="rgba(19, 18, 18, 0.19)"></path>
            <path d="M72 464 a8 8 0 1 0 16 0 a8 8 0 1 0 -16 0zM40 592 a8 8 0 1 0 16 0 a8 8 0 1 0 -16 0z" fill="rgba(19, 18, 18, 0.19)"></path>
            <path d="M272 304L272 336L464 528L496 528" stroke-width="5.33" stroke="rgba(19, 18, 18, 0.19)"></path>
            <path d="M264 304 a8 8 0 1 0 16 0 a8 8 0 1 0 -16 0zM488 528 a8 8 0 1 0 16 0 a8 8 0 1 0 -16 0z" fill="rgba(19, 18, 18, 0.19)"></path>
            <path d="M752 272L624 272" stroke-width="5.33" stroke="rgba(19, 18, 18, 0.19)"></path>
            <path d="M744 272 a8 8 0 1 0 16 0 a8 8 0 1 0 -16 0zM616 272 a8 8 0 1 0 16 0 a8 8 0 1 0 -16 0z" fill="rgba(19, 18, 18, 0.19)"></path>
            <path d="M112 528L112 592" stroke-width="5.33" stroke="rgba(19, 18, 18, 0.19)"></path>
            <path d="M104 528 a8 8 0 1 0 16 0 a8 8 0 1 0 -16 0zM104 592 a8 8 0 1 0 16 0 a8 8 0 1 0 -16 0z" fill="rgba(19, 18, 18, 0.19)"></path>
            <path d="M1200 368L1104 272" stroke-width="5.33" stroke="rgba(19, 18, 18, 0.19)"></path>
            <path d="M1192 368 a8 8 0 1 0 16 0 a8 8 0 1 0 -16 0zM1096 272 a8 8 0 1 0 16 0 a8 8 0 1 0 -16 0z" fill="rgba(19, 18, 18, 0.19)"></path>
            <path d="M1424 432L1424 336" stroke-width="5.33" stroke="rgba(19, 18, 18, 0.19)"></path>
            <path d="M1416 432 a8 8 0 1 0 16 0 a8 8 0 1 0 -16 0zM1416 336 a8 8 0 1 0 16 0 a8 8 0 1 0 -16 0z" fill="rgba(19, 18, 18, 0.19)"></path>
            <path d="M688 592L752 592" stroke-width="5.33" stroke="rgba(19, 18, 18, 0.19)"></path>
            <path d="M680 592 a8 8 0 1 0 16 0 a8 8 0 1 0 -16 0zM744 592 a8 8 0 1 0 16 0 a8 8 0 1 0 -16 0z" fill="rgba(19, 18, 18, 0.19)"></path>
            <path d="M1200 144L1232 176L1264 176L1296 144L1296 112L1264 80L1264 16" stroke-width="5.33" stroke="rgba(19, 18, 18, 0.19)"></path>
            <path d="M1192 144 a8 8 0 1 0 16 0 a8 8 0 1 0 -16 0zM1256 16 a8 8 0 1 0 16 0 a8 8 0 1 0 -16 0z" fill="rgba(19, 18, 18, 0.19)"></path>
            <path d="M144 528L144 336L176 304" stroke-width="5.33" stroke="rgba(19, 18, 18, 0.19)"></path>
            <path d="M136 528 a8 8 0 1 0 16 0 a8 8 0 1 0 -16 0zM168 304 a8 8 0 1 0 16 0 a8 8 0 1 0 -16 0z" fill="rgba(19, 18, 18, 0.19)"></path>
            <path d="M336 368L304 336L304 208L272 176" stroke-width="5.33" stroke="rgba(19, 18, 18, 0.19)"></path>
            <path d="M328 368 a8 8 0 1 0 16 0 a8 8 0 1 0 -16 0zM264 176 a8 8 0 1 0 16 0 a8 8 0 1 0 -16 0z" fill="rgba(19, 18, 18, 0.19)"></path>
            <path d="M1040 496L880 336" stroke-width="5.33" stroke="rgba(19, 18, 18, 0.19)"></path>
            <path d="M1032 496 a8 8 0 1 0 16 0 a8 8 0 1 0 -16 0zM872 336 a8 8 0 1 0 16 0 a8 8 0 1 0 -16 0z" fill="rgba(19, 18, 18, 0.19)"></path>
            <path d="M112 48L80 80L48 80" stroke-width="5.33" stroke="rgba(19, 18, 18, 0.19)"></path>
            <path d="M104 48 a8 8 0 1 0 16 0 a8 8 0 1 0 -16 0zM40 80 a8 8 0 1 0 16 0 a8 8 0 1 0 -16 0z" fill="rgba(19, 18, 18, 0.19)"></path>
            <path d="M688 144L624 208L592 208" stroke-width="5.33" stroke="rgba(19, 18, 18, 0.19)"></path>
            <path d="M680 144 a8 8 0 1 0 16 0 a8 8 0 1 0 -16 0zM584 208 a8 8 0 1 0 16 0 a8 8 0 1 0 -16 0z" fill="rgba(19, 18, 18, 0.19)"></path>
            <path d="M144 80L208 80" stroke-width="5.33" stroke="rgba(19, 18, 18, 0.19)"></path>
            <path d="M136 80 a8 8 0 1 0 16 0 a8 8 0 1 0 -16 0zM200 80 a8 8 0 1 0 16 0 a8 8 0 1 0 -16 0z" fill="rgba(19, 18, 18, 0.19)"></path>
            <path d="M80 592L80 496L112 464L112 432" stroke-width="5.33" stroke="rgba(19, 18, 18, 0.19)"></path>
            <path d="M72 592 a8 8 0 1 0 16 0 a8 8 0 1 0 -16 0zM104 432 a8 8 0 1 0 16 0 a8 8 0 1 0 -16 0z" fill="rgba(19, 18, 18, 0.19)"></path>
            <path d="M1200 80L1232 80L1264 112L1264 144" stroke-width="5.33" stroke="rgba(19, 18, 18, 0.19)"></path>
            <path d="M1192 80 a8 8 0 1 0 16 0 a8 8 0 1 0 -16 0zM1256 144 a8 8 0 1 0 16 0 a8 8 0 1 0 -16 0z" fill="rgba(19, 18, 18, 0.19)"></path>
            <path d="M432 368L336 272L336 240" stroke-width="5.33" stroke="rgba(19, 18, 18, 0.19)"></path>
            <path d="M424 368 a8 8 0 1 0 16 0 a8 8 0 1 0 -16 0zM328 240 a8 8 0 1 0 16 0 a8 8 0 1 0 -16 0z" fill="rgba(19, 18, 18, 0.19)"></path>
            <path d="M1360 176L1424 176" stroke-width="5.33" stroke="rgba(19, 18, 18, 0.19)"></path>
            <path d="M1352 176 a8 8 0 1 0 16 0 a8 8 0 1 0 -16 0zM1416 176 a8 8 0 1 0 16 0 a8 8 0 1 0 -16 0z" fill="rgba(19, 18, 18, 0.19)"></path>
            <path d="M816 208L880 272" stroke-width="5.33" stroke="rgba(19, 18, 18, 0.19)"></path>
            <path d="M808 208 a8 8 0 1 0 16 0 a8 8 0 1 0 -16 0zM872 272 a8 8 0 1 0 16 0 a8 8 0 1 0 -16 0z" fill="rgba(19, 18, 18, 0.19)"></path>
            <path d="M48 48L80 48L112 16L144 16" stroke-width="5.33" stroke="rgba(19, 18, 18, 0.19)"></path>
            <path d="M40 48 a8 8 0 1 0 16 0 a8 8 0 1 0 -16 0zM136 16 a8 8 0 1 0 16 0 a8 8 0 1 0 -16 0z" fill="rgba(19, 18, 18, 0.19)"></path>
            <path d="M176 464L176 400L208 368L240 368L432 560" stroke-width="5.33" stroke="rgba(19, 18, 18, 0.19)"></path>
            <path d="M168 464 a8 8 0 1 0 16 0 a8 8 0 1 0 -16 0zM424 560 a8 8 0 1 0 16 0 a8 8 0 1 0 -16 0z" fill="rgba(19, 18, 18, 0.19)"></path>
            <path d="M240 496L176 496" stroke-width="5.33" stroke="rgba(19, 18, 18, 0.19)"></path>
            <path d="M232 496 a8 8 0 1 0 16 0 a8 8 0 1 0 -16 0zM168 496 a8 8 0 1 0 16 0 a8 8 0 1 0 -16 0z" fill="rgba(19, 18, 18, 0.19)"></path>
            <path d="M1264 560L1296 528L1328 528" stroke-width="5.33" stroke="rgba(19, 18, 18, 0.19)"></path>
            <path d="M1256 560 a8 8 0 1 0 16 0 a8 8 0 1 0 -16 0zM1320 528 a8 8 0 1 0 16 0 a8 8 0 1 0 -16 0z" fill="rgba(19, 18, 18, 0.19)"></path>
            <path d="M112 240L112 112" stroke-width="5.33" stroke="rgba(19, 18, 18, 0.19)"></path>
            <path d="M104 240 a8 8 0 1 0 16 0 a8 8 0 1 0 -16 0zM104 112 a8 8 0 1 0 16 0 a8 8 0 1 0 -16 0z" fill="rgba(19, 18, 18, 0.19)"></path>
            <path d="M944 432L880 368" stroke-width="5.33" stroke="rgba(19, 18, 18, 0.19)"></path>
            <path d="M936 432 a8 8 0 1 0 16 0 a8 8 0 1 0 -16 0zM872 368 a8 8 0 1 0 16 0 a8 8 0 1 0 -16 0z" fill="rgba(19, 18, 18, 0.19)"></path>
            <path d="M1136 16L1232 16" stroke-width="5.33" stroke="rgba(19, 18, 18, 0.19)"></path>
            <path d="M1128 16 a8 8 0 1 0 16 0 a8 8 0 1 0 -16 0zM1224 16 a8 8 0 1 0 16 0 a8 8 0 1 0 -16 0z" fill="rgba(19, 18, 18, 0.19)"></path>
            <path d="M1008 560L976 592L880 592" stroke-width="5.33" stroke="rgba(19, 18, 18, 0.19)"></path>
            <path d="M1000 560 a8 8 0 1 0 16 0 a8 8 0 1 0 -16 0zM872 592 a8 8 0 1 0 16 0 a8 8 0 1 0 -16 0z" fill="rgba(19, 18, 18, 0.19)"></path>
            <path d="M176 208L176 240L208 272" stroke-width="5.33" stroke="rgba(19, 18, 18, 0.19)"></path>
            <path d="M168 208 a8 8 0 1 0 16 0 a8 8 0 1 0 -16 0zM200 272 a8 8 0 1 0 16 0 a8 8 0 1 0 -16 0z" fill="rgba(19, 18, 18, 0.19)"></path>
            <path d="M1296 208L1232 272L1232 304L1264 336L1296 336L1360 272L1424 272" stroke-width="5.33" stroke="rgba(19, 18, 18, 0.19)"></path>
            <path d="M1288 208 a8 8 0 1 0 16 0 a8 8 0 1 0 -16 0zM1416 272 a8 8 0 1 0 16 0 a8 8 0 1 0 -16 0z" fill="rgba(19, 18, 18, 0.19)"></path>
            <path d="M592 176L624 144L656 144" stroke-width="5.33" stroke="rgba(19, 18, 18, 0.19)"></path>
            <path d="M584 176 a8 8 0 1 0 16 0 a8 8 0 1 0 -16 0zM648 144 a8 8 0 1 0 16 0 a8 8 0 1 0 -16 0z" fill="rgba(19, 18, 18, 0.19)"></path>
            <path d="M336 528L208 400" stroke-width="5.33" stroke="rgba(19, 18, 18, 0.19)"></path>
            <path d="M328 528 a8 8 0 1 0 16 0 a8 8 0 1 0 -16 0zM200 400 a8 8 0 1 0 16 0 a8 8 0 1 0 -16 0z" fill="rgba(19, 18, 18, 0.19)"></path>
            <path d="M688 304L688 336L720 368L752 368L784 336L784 272" stroke-width="5.33" stroke="rgba(19, 18, 18, 0.19)"></path>
            <path d="M680 304 a8 8 0 1 0 16 0 a8 8 0 1 0 -16 0zM776 272 a8 8 0 1 0 16 0 a8 8 0 1 0 -16 0z" fill="rgba(19, 18, 18, 0.19)"></path>
            <path d="M592 464L560 432L560 400L592 368L624 368" stroke-width="5.33" stroke="rgba(19, 18, 18, 0.19)"></path>
            <path d="M584 464 a8 8 0 1 0 16 0 a8 8 0 1 0 -16 0zM616 368 a8 8 0 1 0 16 0 a8 8 0 1 0 -16 0z" fill="rgba(19, 18, 18, 0.19)"></path>
            <path d="M944 176L976 176L1008 208L1008 240" stroke-width="5.33" stroke="rgba(19, 18, 18, 0.19)"></path>
            <path d="M936 176 a8 8 0 1 0 16 0 a8 8 0 1 0 -16 0zM1000 240 a8 8 0 1 0 16 0 a8 8 0 1 0 -16 0z" fill="rgba(19, 18, 18, 0.19)"></path>
            <path d="M1072 80L1072 112L1136 176L1168 176" stroke-width="5.33" stroke="rgba(19, 18, 18, 0.19)"></path>
            <path d="M1064 80 a8 8 0 1 0 16 0 a8 8 0 1 0 -16 0zM1160 176 a8 8 0 1 0 16 0 a8 8 0 1 0 -16 0z" fill="rgba(19, 18, 18, 0.19)"></path>
            <path d="M1360 80L1424 16" stroke-width="5.33" stroke="rgba(19, 18, 18, 0.19)"></path>
            <path d="M1352 80 a8 8 0 1 0 16 0 a8 8 0 1 0 -16 0zM1416 16 a8 8 0 1 0 16 0 a8 8 0 1 0 -16 0z" fill="rgba(19, 18, 18, 0.19)"></path>
            <path d="M912 528L944 528L976 560" stroke-width="5.33" stroke="rgba(19, 18, 18, 0.19)"></path>
            <path d="M904 528 a8 8 0 1 0 16 0 a8 8 0 1 0 -16 0zM968 560 a8 8 0 1 0 16 0 a8 8 0 1 0 -16 0z" fill="rgba(19, 18, 18, 0.19)"></path>
            <path d="M80 176L48 144L48 112" stroke-width="5.33" stroke="rgba(19, 18, 18, 0.19)"></path>
            <path d="M72 176 a8 8 0 1 0 16 0 a8 8 0 1 0 -16 0zM40 112 a8 8 0 1 0 16 0 a8 8 0 1 0 -16 0z" fill="rgba(19, 18, 18, 0.19)"></path>
            <path d="M240 592L240 528L272 496" stroke-width="5.33" stroke="rgba(19, 18, 18, 0.19)"></path>
            <path d="M232 592 a8 8 0 1 0 16 0 a8 8 0 1 0 -16 0zM264 496 a8 8 0 1 0 16 0 a8 8 0 1 0 -16 0z" fill="rgba(19, 18, 18, 0.19)"></path>
            <path d="M400 400L432 432L464 432" stroke-width="5.33" stroke="rgba(19, 18, 18, 0.19)"></path>
            <path d="M392 400 a8 8 0 1 0 16 0 a8 8 0 1 0 -16 0zM456 432 a8 8 0 1 0 16 0 a8 8 0 1 0 -16 0z" fill="rgba(19, 18, 18, 0.19)"></path>
            <path d="M784 176L848 176L880 208L880 240" stroke-width="5.33" stroke="rgba(19, 18, 18, 0.19)"></path>
            <path d="M776 176 a8 8 0 1 0 16 0 a8 8 0 1 0 -16 0zM872 240 a8 8 0 1 0 16 0 a8 8 0 1 0 -16 0z" fill="rgba(19, 18, 18, 0.19)"></path>
            <path d="M1328 240L1296 240L1264 272L1264 304" stroke-width="5.33" stroke="rgba(19, 18, 18, 0.19)"></path>
            <path d="M1320 240 a8 8 0 1 0 16 0 a8 8 0 1 0 -16 0zM1256 304 a8 8 0 1 0 16 0 a8 8 0 1 0 -16 0z" fill="rgba(19, 18, 18, 0.19)"></path>
            <path d="M1328 176L1360 208L1424 208" stroke-width="5.33" stroke="rgba(19, 18, 18, 0.19)"></path>
            <path d="M1320 176 a8 8 0 1 0 16 0 a8 8 0 1 0 -16 0zM1416 208 a8 8 0 1 0 16 0 a8 8 0 1 0 -16 0z" fill="rgba(19, 18, 18, 0.19)"></path>
            <path d="M48 240L48 304" stroke-width="5.33" stroke="rgba(19, 18, 18, 0.19)"></path>
            <path d="M40 240 a8 8 0 1 0 16 0 a8 8 0 1 0 -16 0zM40 304 a8 8 0 1 0 16 0 a8 8 0 1 0 -16 0z" fill="rgba(19, 18, 18, 0.19)"></path>
            <path d="M368 208L400 208L432 240L432 272" stroke-width="5.33" stroke="rgba(19, 18, 18, 0.19)"></path>
            <path d="M360 208 a8 8 0 1 0 16 0 a8 8 0 1 0 -16 0zM424 272 a8 8 0 1 0 16 0 a8 8 0 1 0 -16 0z" fill="rgba(19, 18, 18, 0.19)"></path>
            <path d="M1040 48L1008 48L976 16" stroke-width="5.33" stroke="rgba(19, 18, 18, 0.19)"></path>
            <path d="M1032 48 a8 8 0 1 0 16 0 a8 8 0 1 0 -16 0zM968 16 a8 8 0 1 0 16 0 a8 8 0 1 0 -16 0z" fill="rgba(19, 18, 18, 0.19)"></path>
            <path d="M272 208L240 240L208 240" stroke-width="5.33" stroke="rgba(19, 18, 18, 0.19)"></path>
            <path d="M264 208 a8 8 0 1 0 16 0 a8 8 0 1 0 -16 0zM200 240 a8 8 0 1 0 16 0 a8 8 0 1 0 -16 0z" fill="rgba(19, 18, 18, 0.19)"></path>
            <path d="M240 208L208 176L144 176" stroke-width="5.33" stroke="rgba(19, 18, 18, 0.19)"></path>
            <path d="M232 208 a8 8 0 1 0 16 0 a8 8 0 1 0 -16 0zM136 176 a8 8 0 1 0 16 0 a8 8 0 1 0 -16 0z" fill="rgba(19, 18, 18, 0.19)"></path>
            <path d="M80 240L80 304" stroke-width="5.33" stroke="rgba(19, 18, 18, 0.19)"></path>
            <path d="M72 240 a8 8 0 1 0 16 0 a8 8 0 1 0 -16 0zM72 304 a8 8 0 1 0 16 0 a8 8 0 1 0 -16 0z" fill="rgba(19, 18, 18, 0.19)"></path>
        </g>
    </g>
    <defs>
        <mask id="SvgjsMask1156">
            <rect width="1440" height="600" fill="#ffffff"></rect>
        </mask>
        <mask id="SvgjsMask1157">
            <rect width="1440" height="600" fill="white"></rect>
            <path d="M716 400 a4 4 0 1 0 8 0 a4 4 0 1 0 -8 0zM108 80 a4 4 0 1 0 8 0 a4 4 0 1 0 -8 0z" fill="black"></path>
            <path d="M140 240 a4 4 0 1 0 8 0 a4 4 0 1 0 -8 0zM748 464 a4 4 0 1 0 8 0 a4 4 0 1 0 -8 0z" fill="black"></path>
            <path d="M684 208 a4 4 0 1 0 8 0 a4 4 0 1 0 -8 0zM1292 464 a4 4 0 1 0 8 0 a4 4 0 1 0 -8 0z" fill="black"></path>
            <path d="M492 496 a4 4 0 1 0 8 0 a4 4 0 1 0 -8 0zM172 48 a4 4 0 1 0 8 0 a4 4 0 1 0 -8 0z" fill="black"></path>
            <path d="M108 400 a4 4 0 1 0 8 0 a4 4 0 1 0 -8 0zM12 592 a4 4 0 1 0 8 0 a4 4 0 1 0 -8 0z" fill="black"></path>
            <path d="M556 176 a4 4 0 1 0 8 0 a4 4 0 1 0 -8 0zM364 16 a4 4 0 1 0 8 0 a4 4 0 1 0 -8 0z" fill="black"></path>
            <path d="M44 336 a4 4 0 1 0 8 0 a4 4 0 1 0 -8 0zM12 16 a4 4 0 1 0 8 0 a4 4 0 1 0 -8 0z" fill="black"></path>
            <path d="M1420 304 a4 4 0 1 0 8 0 a4 4 0 1 0 -8 0zM812 16 a4 4 0 1 0 8 0 a4 4 0 1 0 -8 0z" fill="black"></path>
            <path d="M236 176 a4 4 0 1 0 8 0 a4 4 0 1 0 -8 0zM236 80 a4 4 0 1 0 8 0 a4 4 0 1 0 -8 0z" fill="black"></path>
            <path d="M1260 400 a4 4 0 1 0 8 0 a4 4 0 1 0 -8 0zM1420 592 a4 4 0 1 0 8 0 a4 4 0 1 0 -8 0z" fill="black"></path>
            <path d="M716 48 a4 4 0 1 0 8 0 a4 4 0 1 0 -8 0zM1196 464 a4 4 0 1 0 8 0 a4 4 0 1 0 -8 0z" fill="black"></path>
            <path d="M588 16 a4 4 0 1 0 8 0 a4 4 0 1 0 -8 0zM780 16 a4 4 0 1 0 8 0 a4 4 0 1 0 -8 0z" fill="black"></path>
            <path d="M972 496 a4 4 0 1 0 8 0 a4 4 0 1 0 -8 0zM1164 560 a4 4 0 1 0 8 0 a4 4 0 1 0 -8 0z" fill="black"></path>
            <path d="M1068 304 a4 4 0 1 0 8 0 a4 4 0 1 0 -8 0zM1196 432 a4 4 0 1 0 8 0 a4 4 0 1 0 -8 0z" fill="black"></path>
            <path d="M812 368 a4 4 0 1 0 8 0 a4 4 0 1 0 -8 0zM556 208 a4 4 0 1 0 8 0 a4 4 0 1 0 -8 0z" fill="black"></path>
            <path d="M556 368 a4 4 0 1 0 8 0 a4 4 0 1 0 -8 0zM524 240 a4 4 0 1 0 8 0 a4 4 0 1 0 -8 0z" fill="black"></path>
            <path d="M524 16 a4 4 0 1 0 8 0 a4 4 0 1 0 -8 0zM908 80 a4 4 0 1 0 8 0 a4 4 0 1 0 -8 0z" fill="black"></path>
            <path d="M1068 240 a4 4 0 1 0 8 0 a4 4 0 1 0 -8 0zM1164 464 a4 4 0 1 0 8 0 a4 4 0 1 0 -8 0z" fill="black"></path>
            <path d="M460 368 a4 4 0 1 0 8 0 a4 4 0 1 0 -8 0zM268 80 a4 4 0 1 0 8 0 a4 4 0 1 0 -8 0z" fill="black"></path>
            <path d="M76 336 a4 4 0 1 0 8 0 a4 4 0 1 0 -8 0zM12 464 a4 4 0 1 0 8 0 a4 4 0 1 0 -8 0z" fill="black"></path>
            <path d="M1356 240 a4 4 0 1 0 8 0 a4 4 0 1 0 -8 0zM1420 240 a4 4 0 1 0 8 0 a4 4 0 1 0 -8 0z" fill="black"></path>
            <path d="M972 240 a4 4 0 1 0 8 0 a4 4 0 1 0 -8 0zM396 16 a4 4 0 1 0 8 0 a4 4 0 1 0 -8 0z" fill="black"></path>
            <path d="M844 368 a4 4 0 1 0 8 0 a4 4 0 1 0 -8 0zM844 304 a4 4 0 1 0 8 0 a4 4 0 1 0 -8 0z" fill="black"></path>
            <path d="M556 496 a4 4 0 1 0 8 0 a4 4 0 1 0 -8 0zM492 560 a4 4 0 1 0 8 0 a4 4 0 1 0 -8 0z" fill="black"></path>
            <path d="M140 304 a4 4 0 1 0 8 0 a4 4 0 1 0 -8 0zM44 432 a4 4 0 1 0 8 0 a4 4 0 1 0 -8 0z" fill="black"></path>
            <path d="M1420 48 a4 4 0 1 0 8 0 a4 4 0 1 0 -8 0zM1196 272 a4 4 0 1 0 8 0 a4 4 0 1 0 -8 0z" fill="black"></path>
            <path d="M1100 368 a4 4 0 1 0 8 0 a4 4 0 1 0 -8 0zM1068 432 a4 4 0 1 0 8 0 a4 4 0 1 0 -8 0z" fill="black"></path>
            <path d="M940 496 a4 4 0 1 0 8 0 a4 4 0 1 0 -8 0zM620 560 a4 4 0 1 0 8 0 a4 4 0 1 0 -8 0z" fill="black"></path>
            <path d="M588 336 a4 4 0 1 0 8 0 a4 4 0 1 0 -8 0zM524 272 a4 4 0 1 0 8 0 a4 4 0 1 0 -8 0z" fill="black"></path>
            <path d="M844 560 a4 4 0 1 0 8 0 a4 4 0 1 0 -8 0zM908 496 a4 4 0 1 0 8 0 a4 4 0 1 0 -8 0z" fill="black"></path>
            <path d="M812 432 a4 4 0 1 0 8 0 a4 4 0 1 0 -8 0zM812 592 a4 4 0 1 0 8 0 a4 4 0 1 0 -8 0z" fill="black"></path>
            <path d="M1004 272 a4 4 0 1 0 8 0 a4 4 0 1 0 -8 0zM876 112 a4 4 0 1 0 8 0 a4 4 0 1 0 -8 0z" fill="black"></path>
            <path d="M1164 240 a4 4 0 1 0 8 0 a4 4 0 1 0 -8 0zM940 16 a4 4 0 1 0 8 0 a4 4 0 1 0 -8 0z" fill="black"></path>
            <path d="M396 144 a4 4 0 1 0 8 0 a4 4 0 1 0 -8 0zM300 144 a4 4 0 1 0 8 0 a4 4 0 1 0 -8 0z" fill="black"></path>
            <path d="M1036 16 a4 4 0 1 0 8 0 a4 4 0 1 0 -8 0zM1196 240 a4 4 0 1 0 8 0 a4 4 0 1 0 -8 0z" fill="black"></path>
            <path d="M1420 528 a4 4 0 1 0 8 0 a4 4 0 1 0 -8 0zM1356 336 a4 4 0 1 0 8 0 a4 4 0 1 0 -8 0z" fill="black"></path>
            <path d="M1228 48 a4 4 0 1 0 8 0 a4 4 0 1 0 -8 0zM1068 16 a4 4 0 1 0 8 0 a4 4 0 1 0 -8 0z" fill="black"></path>
            <path d="M492 16 a4 4 0 1 0 8 0 a4 4 0 1 0 -8 0zM524 80 a4 4 0 1 0 8 0 a4 4 0 1 0 -8 0z" fill="black"></path>
            <path d="M748 176 a4 4 0 1 0 8 0 a4 4 0 1 0 -8 0zM1004 400 a4 4 0 1 0 8 0 a4 4 0 1 0 -8 0z" fill="black"></path>
            <path d="M1004 336 a4 4 0 1 0 8 0 a4 4 0 1 0 -8 0zM940 304 a4 4 0 1 0 8 0 a4 4 0 1 0 -8 0z" fill="black"></path>
            <path d="M364 560 a4 4 0 1 0 8 0 a4 4 0 1 0 -8 0zM460 592 a4 4 0 1 0 8 0 a4 4 0 1 0 -8 0z" fill="black"></path>
            <path d="M396 176 a4 4 0 1 0 8 0 a4 4 0 1 0 -8 0zM332 176 a4 4 0 1 0 8 0 a4 4 0 1 0 -8 0z" fill="black"></path>
            <path d="M76 464 a4 4 0 1 0 8 0 a4 4 0 1 0 -8 0zM44 592 a4 4 0 1 0 8 0 a4 4 0 1 0 -8 0z" fill="black"></path>
            <path d="M268 304 a4 4 0 1 0 8 0 a4 4 0 1 0 -8 0zM492 528 a4 4 0 1 0 8 0 a4 4 0 1 0 -8 0z" fill="black"></path>
            <path d="M748 272 a4 4 0 1 0 8 0 a4 4 0 1 0 -8 0zM620 272 a4 4 0 1 0 8 0 a4 4 0 1 0 -8 0z" fill="black"></path>
            <path d="M108 528 a4 4 0 1 0 8 0 a4 4 0 1 0 -8 0zM108 592 a4 4 0 1 0 8 0 a4 4 0 1 0 -8 0z" fill="black"></path>
            <path d="M1196 368 a4 4 0 1 0 8 0 a4 4 0 1 0 -8 0zM1100 272 a4 4 0 1 0 8 0 a4 4 0 1 0 -8 0z" fill="black"></path>
            <path d="M1420 432 a4 4 0 1 0 8 0 a4 4 0 1 0 -8 0zM1420 336 a4 4 0 1 0 8 0 a4 4 0 1 0 -8 0z" fill="black"></path>
            <path d="M684 592 a4 4 0 1 0 8 0 a4 4 0 1 0 -8 0zM748 592 a4 4 0 1 0 8 0 a4 4 0 1 0 -8 0z" fill="black"></path>
            <path d="M1196 144 a4 4 0 1 0 8 0 a4 4 0 1 0 -8 0zM1260 16 a4 4 0 1 0 8 0 a4 4 0 1 0 -8 0z" fill="black"></path>
            <path d="M140 528 a4 4 0 1 0 8 0 a4 4 0 1 0 -8 0zM172 304 a4 4 0 1 0 8 0 a4 4 0 1 0 -8 0z" fill="black"></path>
            <path d="M332 368 a4 4 0 1 0 8 0 a4 4 0 1 0 -8 0zM268 176 a4 4 0 1 0 8 0 a4 4 0 1 0 -8 0z" fill="black"></path>
            <path d="M1036 496 a4 4 0 1 0 8 0 a4 4 0 1 0 -8 0zM876 336 a4 4 0 1 0 8 0 a4 4 0 1 0 -8 0z" fill="black"></path>
            <path d="M108 48 a4 4 0 1 0 8 0 a4 4 0 1 0 -8 0zM44 80 a4 4 0 1 0 8 0 a4 4 0 1 0 -8 0z" fill="black"></path>
            <path d="M684 144 a4 4 0 1 0 8 0 a4 4 0 1 0 -8 0zM588 208 a4 4 0 1 0 8 0 a4 4 0 1 0 -8 0z" fill="black"></path>
            <path d="M140 80 a4 4 0 1 0 8 0 a4 4 0 1 0 -8 0zM204 80 a4 4 0 1 0 8 0 a4 4 0 1 0 -8 0z" fill="black"></path>
            <path d="M76 592 a4 4 0 1 0 8 0 a4 4 0 1 0 -8 0zM108 432 a4 4 0 1 0 8 0 a4 4 0 1 0 -8 0z" fill="black"></path>
            <path d="M1196 80 a4 4 0 1 0 8 0 a4 4 0 1 0 -8 0zM1260 144 a4 4 0 1 0 8 0 a4 4 0 1 0 -8 0z" fill="black"></path>
            <path d="M428 368 a4 4 0 1 0 8 0 a4 4 0 1 0 -8 0zM332 240 a4 4 0 1 0 8 0 a4 4 0 1 0 -8 0z" fill="black"></path>
            <path d="M1356 176 a4 4 0 1 0 8 0 a4 4 0 1 0 -8 0zM1420 176 a4 4 0 1 0 8 0 a4 4 0 1 0 -8 0z" fill="black"></path>
            <path d="M812 208 a4 4 0 1 0 8 0 a4 4 0 1 0 -8 0zM876 272 a4 4 0 1 0 8 0 a4 4 0 1 0 -8 0z" fill="black"></path>
            <path d="M44 48 a4 4 0 1 0 8 0 a4 4 0 1 0 -8 0zM140 16 a4 4 0 1 0 8 0 a4 4 0 1 0 -8 0z" fill="black"></path>
            <path d="M172 464 a4 4 0 1 0 8 0 a4 4 0 1 0 -8 0zM428 560 a4 4 0 1 0 8 0 a4 4 0 1 0 -8 0z" fill="black"></path>
            <path d="M236 496 a4 4 0 1 0 8 0 a4 4 0 1 0 -8 0zM172 496 a4 4 0 1 0 8 0 a4 4 0 1 0 -8 0z" fill="black"></path>
            <path d="M1260 560 a4 4 0 1 0 8 0 a4 4 0 1 0 -8 0zM1324 528 a4 4 0 1 0 8 0 a4 4 0 1 0 -8 0z" fill="black"></path>
            <path d="M108 240 a4 4 0 1 0 8 0 a4 4 0 1 0 -8 0zM108 112 a4 4 0 1 0 8 0 a4 4 0 1 0 -8 0z" fill="black"></path>
            <path d="M940 432 a4 4 0 1 0 8 0 a4 4 0 1 0 -8 0zM876 368 a4 4 0 1 0 8 0 a4 4 0 1 0 -8 0z" fill="black"></path>
            <path d="M1132 16 a4 4 0 1 0 8 0 a4 4 0 1 0 -8 0zM1228 16 a4 4 0 1 0 8 0 a4 4 0 1 0 -8 0z" fill="black"></path>
            <path d="M1004 560 a4 4 0 1 0 8 0 a4 4 0 1 0 -8 0zM876 592 a4 4 0 1 0 8 0 a4 4 0 1 0 -8 0z" fill="black"></path>
            <path d="M172 208 a4 4 0 1 0 8 0 a4 4 0 1 0 -8 0zM204 272 a4 4 0 1 0 8 0 a4 4 0 1 0 -8 0z" fill="black"></path>
            <path d="M1292 208 a4 4 0 1 0 8 0 a4 4 0 1 0 -8 0zM1420 272 a4 4 0 1 0 8 0 a4 4 0 1 0 -8 0z" fill="black"></path>
            <path d="M588 176 a4 4 0 1 0 8 0 a4 4 0 1 0 -8 0zM652 144 a4 4 0 1 0 8 0 a4 4 0 1 0 -8 0z" fill="black"></path>
            <path d="M332 528 a4 4 0 1 0 8 0 a4 4 0 1 0 -8 0zM204 400 a4 4 0 1 0 8 0 a4 4 0 1 0 -8 0z" fill="black"></path>
            <path d="M684 304 a4 4 0 1 0 8 0 a4 4 0 1 0 -8 0zM780 272 a4 4 0 1 0 8 0 a4 4 0 1 0 -8 0z" fill="black"></path>
            <path d="M588 464 a4 4 0 1 0 8 0 a4 4 0 1 0 -8 0zM620 368 a4 4 0 1 0 8 0 a4 4 0 1 0 -8 0z" fill="black"></path>
            <path d="M940 176 a4 4 0 1 0 8 0 a4 4 0 1 0 -8 0zM1004 240 a4 4 0 1 0 8 0 a4 4 0 1 0 -8 0z" fill="black"></path>
            <path d="M1068 80 a4 4 0 1 0 8 0 a4 4 0 1 0 -8 0zM1164 176 a4 4 0 1 0 8 0 a4 4 0 1 0 -8 0z" fill="black"></path>
            <path d="M1356 80 a4 4 0 1 0 8 0 a4 4 0 1 0 -8 0zM1420 16 a4 4 0 1 0 8 0 a4 4 0 1 0 -8 0z" fill="black"></path>
            <path d="M908 528 a4 4 0 1 0 8 0 a4 4 0 1 0 -8 0zM972 560 a4 4 0 1 0 8 0 a4 4 0 1 0 -8 0z" fill="black"></path>
            <path d="M76 176 a4 4 0 1 0 8 0 a4 4 0 1 0 -8 0zM44 112 a4 4 0 1 0 8 0 a4 4 0 1 0 -8 0z" fill="black"></path>
            <path d="M236 592 a4 4 0 1 0 8 0 a4 4 0 1 0 -8 0zM268 496 a4 4 0 1 0 8 0 a4 4 0 1 0 -8 0z" fill="black"></path>
            <path d="M396 400 a4 4 0 1 0 8 0 a4 4 0 1 0 -8 0zM460 432 a4 4 0 1 0 8 0 a4 4 0 1 0 -8 0z" fill="black"></path>
            <path d="M780 176 a4 4 0 1 0 8 0 a4 4 0 1 0 -8 0zM876 240 a4 4 0 1 0 8 0 a4 4 0 1 0 -8 0z" fill="black"></path>
            <path d="M1324 240 a4 4 0 1 0 8 0 a4 4 0 1 0 -8 0zM1260 304 a4 4 0 1 0 8 0 a4 4 0 1 0 -8 0z" fill="black"></path>
            <path d="M1324 176 a4 4 0 1 0 8 0 a4 4 0 1 0 -8 0zM1420 208 a4 4 0 1 0 8 0 a4 4 0 1 0 -8 0z" fill="black"></path>
            <path d="M44 240 a4 4 0 1 0 8 0 a4 4 0 1 0 -8 0zM44 304 a4 4 0 1 0 8 0 a4 4 0 1 0 -8 0z" fill="black"></path>
            <path d="M364 208 a4 4 0 1 0 8 0 a4 4 0 1 0 -8 0zM428 272 a4 4 0 1 0 8 0 a4 4 0 1 0 -8 0z" fill="black"></path>
            <path d="M1036 48 a4 4 0 1 0 8 0 a4 4 0 1 0 -8 0zM972 16 a4 4 0 1 0 8 0 a4 4 0 1 0 -8 0z" fill="black"></path>
            <path d="M268 208 a4 4 0 1 0 8 0 a4 4 0 1 0 -8 0zM204 240 a4 4 0 1 0 8 0 a4 4 0 1 0 -8 0z" fill="black"></path>
            <path d="M236 208 a4 4 0 1 0 8 0 a4 4 0 1 0 -8 0zM140 176 a4 4 0 1 0 8 0 a4 4 0 1 0 -8 0z" fill="black"></path>
            <path d="M76 240 a4 4 0 1 0 8 0 a4 4 0 1 0 -8 0zM76 304 a4 4 0 1 0 8 0 a4 4 0 1 0 -8 0z" fill="black"></path>
        </mask>
    </defs>
</svg>