<svg xmlns="http://www.w3.org/2000/svg" version="1.1" xmlns:xlink="http://www.w3.org/1999/xlink" xmlns:svgjs="http://svgjs.dev/svgjs" width="1440" height="560" preserveAspectRatio="none" viewBox="0 0 1440 560">
    <g mask="url(&quot;#SvgjsMask1868&quot;)" fill="none">
        <rect width="1440" height="560" x="0" y="0" fill="url(&quot;#SvgjsLinearGradient1869&quot;)"></rect>
        <g mask="url(&quot;#SvgjsMask1870&quot;)">
            <path d="M1425 575L875 25L475 25" stroke-width="8.33" stroke="rgba(255, 65, 54, 1)"></path>
            <path d="M1412.5 575 a12.5 12.5 0 1 0 25 0 a12.5 12.5 0 1 0 -25 0zM462.5 25 a12.5 12.5 0 1 0 25 0 a12.5 12.5 0 1 0 -25 0z" fill="rgba(255, 65, 54, 1)"></path>
            <path d="M675 325L525 475L525 575" stroke-width="8.33" stroke="rgba(255, 65, 54, 1)"></path>
            <path d="M662.5 325 a12.5 12.5 0 1 0 25 0 a12.5 12.5 0 1 0 -25 0zM512.5 575 a12.5 12.5 0 1 0 25 0 a12.5 12.5 0 1 0 -25 0z" fill="rgba(255, 65, 54, 1)"></path>
            <path d="M225 175L225 425L325 525L325 575" stroke-width="8.33" stroke="rgba(255, 65, 54, 1)"></path>
            <path d="M212.5 175 a12.5 12.5 0 1 0 25 0 a12.5 12.5 0 1 0 -25 0zM312.5 575 a12.5 12.5 0 1 0 25 0 a12.5 12.5 0 1 0 -25 0z" fill="rgba(255, 65, 54, 1)"></path>
            <path d="M725 425L625 425L575 475L575 575" stroke-width="8.33" stroke="rgba(255, 65, 54, 1)"></path>
            <path d="M712.5 425 a12.5 12.5 0 1 0 25 0 a12.5 12.5 0 1 0 -25 0zM562.5 575 a12.5 12.5 0 1 0 25 0 a12.5 12.5 0 1 0 -25 0z" fill="rgba(255, 65, 54, 1)"></path>
            <path d="M225 75L275 75L325 25L425 25L775 375L775 575" stroke-width="8.33" stroke="rgba(255, 65, 54, 1)"></path>
            <path d="M212.5 75 a12.5 12.5 0 1 0 25 0 a12.5 12.5 0 1 0 -25 0zM762.5 575 a12.5 12.5 0 1 0 25 0 a12.5 12.5 0 1 0 -25 0z" fill="rgba(255, 65, 54, 1)"></path>
            <path d="M825 75L675 225" stroke-width="8.33" stroke="rgba(255, 65, 54, 1)"></path>
            <path d="M812.5 75 a12.5 12.5 0 1 0 25 0 a12.5 12.5 0 1 0 -25 0zM662.5 225 a12.5 12.5 0 1 0 25 0 a12.5 12.5 0 1 0 -25 0z" fill="rgba(255, 65, 54, 1)"></path>
            <path d="M475 175L525 175L625 275L625 325L425 525L375 525L275 425L275 125L325 75L375 75" stroke-width="8.33" stroke="rgba(255, 65, 54, 1)"></path>
            <path d="M462.5 175 a12.5 12.5 0 1 0 25 0 a12.5 12.5 0 1 0 -25 0zM362.5 75 a12.5 12.5 0 1 0 25 0 a12.5 12.5 0 1 0 -25 0z" fill="rgba(255, 65, 54, 1)"></path>
            <path d="M1225 325L1225 25" stroke-width="8.33" stroke="rgba(255, 65, 54, 1)"></path>
            <path d="M1212.5 325 a12.5 12.5 0 1 0 25 0 a12.5 12.5 0 1 0 -25 0zM1212.5 25 a12.5 12.5 0 1 0 25 0 a12.5 12.5 0 1 0 -25 0z" fill="rgba(255, 65, 54, 1)"></path>
            <path d="M75 475L25 525L25 575" stroke-width="8.33" stroke="rgba(255, 65, 54, 1)"></path>
            <path d="M62.5 475 a12.5 12.5 0 1 0 25 0 a12.5 12.5 0 1 0 -25 0zM12.5 575 a12.5 12.5 0 1 0 25 0 a12.5 12.5 0 1 0 -25 0z" fill="rgba(255, 65, 54, 1)"></path>
            <path d="M1375 25L1275 25" stroke-width="8.33" stroke="rgba(255, 65, 54, 1)"></path>
            <path d="M1362.5 25 a12.5 12.5 0 1 0 25 0 a12.5 12.5 0 1 0 -25 0zM1262.5 25 a12.5 12.5 0 1 0 25 0 a12.5 12.5 0 1 0 -25 0z" fill="rgba(255, 65, 54, 1)"></path>
            <path d="M25 125L225 125" stroke-width="8.33" stroke="rgba(255, 65, 54, 1)"></path>
            <path d="M12.5 125 a12.5 12.5 0 1 0 25 0 a12.5 12.5 0 1 0 -25 0zM212.5 125 a12.5 12.5 0 1 0 25 0 a12.5 12.5 0 1 0 -25 0z" fill="rgba(255, 65, 54, 1)"></path>
            <path d="M1225 575L875 575L825 525L825 125L875 75" stroke-width="8.33" stroke="rgba(255, 65, 54, 1)"></path>
            <path d="M1212.5 575 a12.5 12.5 0 1 0 25 0 a12.5 12.5 0 1 0 -25 0zM862.5 75 a12.5 12.5 0 1 0 25 0 a12.5 12.5 0 1 0 -25 0z" fill="rgba(255, 65, 54, 1)"></path>
            <path d="M1425 375L1375 425L1375 475L1425 525" stroke-width="8.33" stroke="rgba(255, 65, 54, 1)"></path>
            <path d="M1412.5 375 a12.5 12.5 0 1 0 25 0 a12.5 12.5 0 1 0 -25 0zM1412.5 525 a12.5 12.5 0 1 0 25 0 a12.5 12.5 0 1 0 -25 0z" fill="rgba(255, 65, 54, 1)"></path>
            <path d="M975 225L975 175L925 125L875 125" stroke-width="8.33" stroke="rgba(255, 65, 54, 1)"></path>
            <path d="M962.5 225 a12.5 12.5 0 1 0 25 0 a12.5 12.5 0 1 0 -25 0zM862.5 125 a12.5 12.5 0 1 0 25 0 a12.5 12.5 0 1 0 -25 0z" fill="rgba(255, 65, 54, 1)"></path>
            <path d="M1175 375L1125 325L1075 325L875 525" stroke-width="8.33" stroke="rgba(255, 65, 54, 1)"></path>
            <path d="M1162.5 375 a12.5 12.5 0 1 0 25 0 a12.5 12.5 0 1 0 -25 0zM862.5 525 a12.5 12.5 0 1 0 25 0 a12.5 12.5 0 1 0 -25 0z" fill="rgba(255, 65, 54, 1)"></path>
            <path d="M125 225L125 575" stroke-width="8.33" stroke="rgba(255, 65, 54, 1)"></path>
            <path d="M112.5 225 a12.5 12.5 0 1 0 25 0 a12.5 12.5 0 1 0 -25 0zM112.5 575 a12.5 12.5 0 1 0 25 0 a12.5 12.5 0 1 0 -25 0z" fill="rgba(255, 65, 54, 1)"></path>
            <path d="M525 375L525 225" stroke-width="8.33" stroke="rgba(255, 65, 54, 1)"></path>
            <path d="M512.5 375 a12.5 12.5 0 1 0 25 0 a12.5 12.5 0 1 0 -25 0zM512.5 225 a12.5 12.5 0 1 0 25 0 a12.5 12.5 0 1 0 -25 0z" fill="rgba(255, 65, 54, 1)"></path>
            <path d="M875 325L925 275L1025 275" stroke-width="8.33" stroke="rgba(255, 65, 54, 1)"></path>
            <path d="M862.5 325 a12.5 12.5 0 1 0 25 0 a12.5 12.5 0 1 0 -25 0zM1012.5 275 a12.5 12.5 0 1 0 25 0 a12.5 12.5 0 1 0 -25 0z" fill="rgba(255, 65, 54, 1)"></path>
            <path d="M1275 175L1275 375L1325 425" stroke-width="8.33" stroke="rgba(255, 65, 54, 1)"></path>
            <path d="M1262.5 175 a12.5 12.5 0 1 0 25 0 a12.5 12.5 0 1 0 -25 0zM1312.5 425 a12.5 12.5 0 1 0 25 0 a12.5 12.5 0 1 0 -25 0z" fill="rgba(255, 65, 54, 1)"></path>
            <path d="M125 75L25 75" stroke-width="8.33" stroke="rgba(255, 65, 54, 1)"></path>
            <path d="M112.5 75 a12.5 12.5 0 1 0 25 0 a12.5 12.5 0 1 0 -25 0zM12.5 75 a12.5 12.5 0 1 0 25 0 a12.5 12.5 0 1 0 -25 0z" fill="rgba(255, 65, 54, 1)"></path>
            <path d="M175 75L125 25L25 25" stroke-width="8.33" stroke="rgba(255, 65, 54, 1)"></path>
            <path d="M162.5 75 a12.5 12.5 0 1 0 25 0 a12.5 12.5 0 1 0 -25 0zM12.5 25 a12.5 12.5 0 1 0 25 0 a12.5 12.5 0 1 0 -25 0z" fill="rgba(255, 65, 54, 1)"></path>
            <path d="M75 425L75 175" stroke-width="8.33" stroke="rgba(255, 65, 54, 1)"></path>
            <path d="M62.5 425 a12.5 12.5 0 1 0 25 0 a12.5 12.5 0 1 0 -25 0zM62.5 175 a12.5 12.5 0 1 0 25 0 a12.5 12.5 0 1 0 -25 0z" fill="rgba(255, 65, 54, 1)"></path>
            <path d="M1075 475L1075 375" stroke-width="8.33" stroke="rgba(255, 65, 54, 1)"></path>
            <path d="M1062.5 475 a12.5 12.5 0 1 0 25 0 a12.5 12.5 0 1 0 -25 0zM1062.5 375 a12.5 12.5 0 1 0 25 0 a12.5 12.5 0 1 0 -25 0z" fill="rgba(255, 65, 54, 1)"></path>
            <path d="M1375 175L1325 225L1325 375" stroke-width="8.33" stroke="rgba(255, 65, 54, 1)"></path>
            <path d="M1362.5 175 a12.5 12.5 0 1 0 25 0 a12.5 12.5 0 1 0 -25 0zM1312.5 375 a12.5 12.5 0 1 0 25 0 a12.5 12.5 0 1 0 -25 0z" fill="rgba(255, 65, 54, 1)"></path>
            <path d="M375 275L475 375L475 425" stroke-width="8.33" stroke="rgba(255, 65, 54, 1)"></path>
            <path d="M362.5 275 a12.5 12.5 0 1 0 25 0 a12.5 12.5 0 1 0 -25 0zM462.5 425 a12.5 12.5 0 1 0 25 0 a12.5 12.5 0 1 0 -25 0z" fill="rgba(255, 65, 54, 1)"></path>
            <path d="M1275 575L1225 525L975 525" stroke-width="8.33" stroke="rgba(255, 65, 54, 1)"></path>
            <path d="M1262.5 575 a12.5 12.5 0 1 0 25 0 a12.5 12.5 0 1 0 -25 0zM962.5 525 a12.5 12.5 0 1 0 25 0 a12.5 12.5 0 1 0 -25 0z" fill="rgba(255, 65, 54, 1)"></path>
            <path d="M625 525L675 475L725 475" stroke-width="8.33" stroke="rgba(255, 65, 54, 1)"></path>
            <path d="M612.5 525 a12.5 12.5 0 1 0 25 0 a12.5 12.5 0 1 0 -25 0zM712.5 475 a12.5 12.5 0 1 0 25 0 a12.5 12.5 0 1 0 -25 0z" fill="rgba(255, 65, 54, 1)"></path>
            <path d="M1075 175L1175 275" stroke-width="8.33" stroke="rgba(255, 65, 54, 1)"></path>
            <path d="M1062.5 175 a12.5 12.5 0 1 0 25 0 a12.5 12.5 0 1 0 -25 0zM1162.5 275 a12.5 12.5 0 1 0 25 0 a12.5 12.5 0 1 0 -25 0z" fill="rgba(255, 65, 54, 1)"></path>
            <path d="M425 275L425 175L375 125L325 125" stroke-width="8.33" stroke="rgba(255, 65, 54, 1)"></path>
            <path d="M412.5 275 a12.5 12.5 0 1 0 25 0 a12.5 12.5 0 1 0 -25 0zM312.5 125 a12.5 12.5 0 1 0 25 0 a12.5 12.5 0 1 0 -25 0z" fill="rgba(255, 65, 54, 1)"></path>
            <path d="M1175 75L1125 125L1025 125L975 75L975 25" stroke-width="8.33" stroke="rgba(255, 65, 54, 1)"></path>
            <path d="M1162.5 75 a12.5 12.5 0 1 0 25 0 a12.5 12.5 0 1 0 -25 0zM962.5 25 a12.5 12.5 0 1 0 25 0 a12.5 12.5 0 1 0 -25 0z" fill="rgba(255, 65, 54, 1)"></path>
            <path d="M175 425L175 175" stroke-width="8.33" stroke="rgba(255, 65, 54, 1)"></path>
            <path d="M162.5 425 a12.5 12.5 0 1 0 25 0 a12.5 12.5 0 1 0 -25 0zM162.5 175 a12.5 12.5 0 1 0 25 0 a12.5 12.5 0 1 0 -25 0z" fill="rgba(255, 65, 54, 1)"></path>
            <path d="M725 575L625 575" stroke-width="8.33" stroke="rgba(255, 65, 54, 1)"></path>
            <path d="M712.5 575 a12.5 12.5 0 1 0 25 0 a12.5 12.5 0 1 0 -25 0zM612.5 575 a12.5 12.5 0 1 0 25 0 a12.5 12.5 0 1 0 -25 0z" fill="rgba(255, 65, 54, 1)"></path>
            <path d="M875 375L875 475" stroke-width="8.33" stroke="rgba(255, 65, 54, 1)"></path>
            <path d="M862.5 375 a12.5 12.5 0 1 0 25 0 a12.5 12.5 0 1 0 -25 0zM862.5 475 a12.5 12.5 0 1 0 25 0 a12.5 12.5 0 1 0 -25 0z" fill="rgba(255, 65, 54, 1)"></path>
            <path d="M325 425L375 425L425 375" stroke-width="8.33" stroke="rgba(255, 65, 54, 1)"></path>
            <path d="M312.5 425 a12.5 12.5 0 1 0 25 0 a12.5 12.5 0 1 0 -25 0zM412.5 375 a12.5 12.5 0 1 0 25 0 a12.5 12.5 0 1 0 -25 0z" fill="rgba(255, 65, 54, 1)"></path>
            <path d="M25 325L25 475" stroke-width="8.33" stroke="rgba(255, 65, 54, 1)"></path>
            <path d="M12.5 325 a12.5 12.5 0 1 0 25 0 a12.5 12.5 0 1 0 -25 0zM12.5 475 a12.5 12.5 0 1 0 25 0 a12.5 12.5 0 1 0 -25 0z" fill="rgba(255, 65, 54, 1)"></path>
            <path d="M275 575L275 525L225 475L175 475" stroke-width="8.33" stroke="rgba(255, 65, 54, 1)"></path>
            <path d="M262.5 575 a12.5 12.5 0 1 0 25 0 a12.5 12.5 0 1 0 -25 0zM162.5 475 a12.5 12.5 0 1 0 25 0 a12.5 12.5 0 1 0 -25 0z" fill="rgba(255, 65, 54, 1)"></path>
            <path d="M1275 525L1275 475L1225 425L1125 425" stroke-width="8.33" stroke="rgba(255, 65, 54, 1)"></path>
            <path d="M1262.5 525 a12.5 12.5 0 1 0 25 0 a12.5 12.5 0 1 0 -25 0zM1112.5 425 a12.5 12.5 0 1 0 25 0 a12.5 12.5 0 1 0 -25 0z" fill="rgba(255, 65, 54, 1)"></path>
            <path d="M325 375L325 175" stroke-width="8.33" stroke="rgba(255, 65, 54, 1)"></path>
            <path d="M312.5 375 a12.5 12.5 0 1 0 25 0 a12.5 12.5 0 1 0 -25 0zM312.5 175 a12.5 12.5 0 1 0 25 0 a12.5 12.5 0 1 0 -25 0z" fill="rgba(255, 65, 54, 1)"></path>
            <path d="M1375 125L1325 75L1275 75" stroke-width="8.33" stroke="rgba(255, 65, 54, 1)"></path>
            <path d="M1362.5 125 a12.5 12.5 0 1 0 25 0 a12.5 12.5 0 1 0 -25 0zM1262.5 75 a12.5 12.5 0 1 0 25 0 a12.5 12.5 0 1 0 -25 0z" fill="rgba(255, 65, 54, 1)"></path>
        </g>
    </g>
    <defs>
        <mask id="SvgjsMask1868">
            <rect width="1440" height="560" fill="#ffffff"></rect>
        </mask>
        <linearGradient x1="15.28%" y1="139.29%" x2="84.72%" y2="-39.29%" gradientUnits="userSpaceOnUse" id="SvgjsLinearGradient1869">
            <stop stop-color="#0e2a47" offset="0"></stop>
            <stop stop-color="rgba(0, 31, 63, 1)" offset="1"></stop>
        </linearGradient>
        <mask id="SvgjsMask1870">
            <rect width="1440" height="560" fill="white"></rect>
            <path d="M1418.75 575 a6.25 6.25 0 1 0 12.5 0 a6.25 6.25 0 1 0 -12.5 0zM468.75 25 a6.25 6.25 0 1 0 12.5 0 a6.25 6.25 0 1 0 -12.5 0z" fill="black"></path>
            <path d="M668.75 325 a6.25 6.25 0 1 0 12.5 0 a6.25 6.25 0 1 0 -12.5 0zM518.75 575 a6.25 6.25 0 1 0 12.5 0 a6.25 6.25 0 1 0 -12.5 0z" fill="black"></path>
            <path d="M218.75 175 a6.25 6.25 0 1 0 12.5 0 a6.25 6.25 0 1 0 -12.5 0zM318.75 575 a6.25 6.25 0 1 0 12.5 0 a6.25 6.25 0 1 0 -12.5 0z" fill="black"></path>
            <path d="M718.75 425 a6.25 6.25 0 1 0 12.5 0 a6.25 6.25 0 1 0 -12.5 0zM568.75 575 a6.25 6.25 0 1 0 12.5 0 a6.25 6.25 0 1 0 -12.5 0z" fill="black"></path>
            <path d="M218.75 75 a6.25 6.25 0 1 0 12.5 0 a6.25 6.25 0 1 0 -12.5 0zM768.75 575 a6.25 6.25 0 1 0 12.5 0 a6.25 6.25 0 1 0 -12.5 0z" fill="black"></path>
            <path d="M818.75 75 a6.25 6.25 0 1 0 12.5 0 a6.25 6.25 0 1 0 -12.5 0zM668.75 225 a6.25 6.25 0 1 0 12.5 0 a6.25 6.25 0 1 0 -12.5 0z" fill="black"></path>
            <path d="M468.75 175 a6.25 6.25 0 1 0 12.5 0 a6.25 6.25 0 1 0 -12.5 0zM368.75 75 a6.25 6.25 0 1 0 12.5 0 a6.25 6.25 0 1 0 -12.5 0z" fill="black"></path>
            <path d="M1218.75 325 a6.25 6.25 0 1 0 12.5 0 a6.25 6.25 0 1 0 -12.5 0zM1218.75 25 a6.25 6.25 0 1 0 12.5 0 a6.25 6.25 0 1 0 -12.5 0z" fill="black"></path>
            <path d="M68.75 475 a6.25 6.25 0 1 0 12.5 0 a6.25 6.25 0 1 0 -12.5 0zM18.75 575 a6.25 6.25 0 1 0 12.5 0 a6.25 6.25 0 1 0 -12.5 0z" fill="black"></path>
            <path d="M1368.75 25 a6.25 6.25 0 1 0 12.5 0 a6.25 6.25 0 1 0 -12.5 0zM1268.75 25 a6.25 6.25 0 1 0 12.5 0 a6.25 6.25 0 1 0 -12.5 0z" fill="black"></path>
            <path d="M18.75 125 a6.25 6.25 0 1 0 12.5 0 a6.25 6.25 0 1 0 -12.5 0zM218.75 125 a6.25 6.25 0 1 0 12.5 0 a6.25 6.25 0 1 0 -12.5 0z" fill="black"></path>
            <path d="M1218.75 575 a6.25 6.25 0 1 0 12.5 0 a6.25 6.25 0 1 0 -12.5 0zM868.75 75 a6.25 6.25 0 1 0 12.5 0 a6.25 6.25 0 1 0 -12.5 0z" fill="black"></path>
            <path d="M1418.75 375 a6.25 6.25 0 1 0 12.5 0 a6.25 6.25 0 1 0 -12.5 0zM1418.75 525 a6.25 6.25 0 1 0 12.5 0 a6.25 6.25 0 1 0 -12.5 0z" fill="black"></path>
            <path d="M968.75 225 a6.25 6.25 0 1 0 12.5 0 a6.25 6.25 0 1 0 -12.5 0zM868.75 125 a6.25 6.25 0 1 0 12.5 0 a6.25 6.25 0 1 0 -12.5 0z" fill="black"></path>
            <path d="M1168.75 375 a6.25 6.25 0 1 0 12.5 0 a6.25 6.25 0 1 0 -12.5 0zM868.75 525 a6.25 6.25 0 1 0 12.5 0 a6.25 6.25 0 1 0 -12.5 0z" fill="black"></path>
            <path d="M118.75 225 a6.25 6.25 0 1 0 12.5 0 a6.25 6.25 0 1 0 -12.5 0zM118.75 575 a6.25 6.25 0 1 0 12.5 0 a6.25 6.25 0 1 0 -12.5 0z" fill="black"></path>
            <path d="M518.75 375 a6.25 6.25 0 1 0 12.5 0 a6.25 6.25 0 1 0 -12.5 0zM518.75 225 a6.25 6.25 0 1 0 12.5 0 a6.25 6.25 0 1 0 -12.5 0z" fill="black"></path>
            <path d="M868.75 325 a6.25 6.25 0 1 0 12.5 0 a6.25 6.25 0 1 0 -12.5 0zM1018.75 275 a6.25 6.25 0 1 0 12.5 0 a6.25 6.25 0 1 0 -12.5 0z" fill="black"></path>
            <path d="M1268.75 175 a6.25 6.25 0 1 0 12.5 0 a6.25 6.25 0 1 0 -12.5 0zM1318.75 425 a6.25 6.25 0 1 0 12.5 0 a6.25 6.25 0 1 0 -12.5 0z" fill="black"></path>
            <path d="M118.75 75 a6.25 6.25 0 1 0 12.5 0 a6.25 6.25 0 1 0 -12.5 0zM18.75 75 a6.25 6.25 0 1 0 12.5 0 a6.25 6.25 0 1 0 -12.5 0z" fill="black"></path>
            <path d="M168.75 75 a6.25 6.25 0 1 0 12.5 0 a6.25 6.25 0 1 0 -12.5 0zM18.75 25 a6.25 6.25 0 1 0 12.5 0 a6.25 6.25 0 1 0 -12.5 0z" fill="black"></path>
            <path d="M68.75 425 a6.25 6.25 0 1 0 12.5 0 a6.25 6.25 0 1 0 -12.5 0zM68.75 175 a6.25 6.25 0 1 0 12.5 0 a6.25 6.25 0 1 0 -12.5 0z" fill="black"></path>
            <path d="M1068.75 475 a6.25 6.25 0 1 0 12.5 0 a6.25 6.25 0 1 0 -12.5 0zM1068.75 375 a6.25 6.25 0 1 0 12.5 0 a6.25 6.25 0 1 0 -12.5 0z" fill="black"></path>
            <path d="M1368.75 175 a6.25 6.25 0 1 0 12.5 0 a6.25 6.25 0 1 0 -12.5 0zM1318.75 375 a6.25 6.25 0 1 0 12.5 0 a6.25 6.25 0 1 0 -12.5 0z" fill="black"></path>
            <path d="M368.75 275 a6.25 6.25 0 1 0 12.5 0 a6.25 6.25 0 1 0 -12.5 0zM468.75 425 a6.25 6.25 0 1 0 12.5 0 a6.25 6.25 0 1 0 -12.5 0z" fill="black"></path>
            <path d="M1268.75 575 a6.25 6.25 0 1 0 12.5 0 a6.25 6.25 0 1 0 -12.5 0zM968.75 525 a6.25 6.25 0 1 0 12.5 0 a6.25 6.25 0 1 0 -12.5 0z" fill="black"></path>
            <path d="M618.75 525 a6.25 6.25 0 1 0 12.5 0 a6.25 6.25 0 1 0 -12.5 0zM718.75 475 a6.25 6.25 0 1 0 12.5 0 a6.25 6.25 0 1 0 -12.5 0z" fill="black"></path>
            <path d="M1068.75 175 a6.25 6.25 0 1 0 12.5 0 a6.25 6.25 0 1 0 -12.5 0zM1168.75 275 a6.25 6.25 0 1 0 12.5 0 a6.25 6.25 0 1 0 -12.5 0z" fill="black"></path>
            <path d="M418.75 275 a6.25 6.25 0 1 0 12.5 0 a6.25 6.25 0 1 0 -12.5 0zM318.75 125 a6.25 6.25 0 1 0 12.5 0 a6.25 6.25 0 1 0 -12.5 0z" fill="black"></path>
            <path d="M1168.75 75 a6.25 6.25 0 1 0 12.5 0 a6.25 6.25 0 1 0 -12.5 0zM968.75 25 a6.25 6.25 0 1 0 12.5 0 a6.25 6.25 0 1 0 -12.5 0z" fill="black"></path>
            <path d="M168.75 425 a6.25 6.25 0 1 0 12.5 0 a6.25 6.25 0 1 0 -12.5 0zM168.75 175 a6.25 6.25 0 1 0 12.5 0 a6.25 6.25 0 1 0 -12.5 0z" fill="black"></path>
            <path d="M718.75 575 a6.25 6.25 0 1 0 12.5 0 a6.25 6.25 0 1 0 -12.5 0zM618.75 575 a6.25 6.25 0 1 0 12.5 0 a6.25 6.25 0 1 0 -12.5 0z" fill="black"></path>
            <path d="M868.75 375 a6.25 6.25 0 1 0 12.5 0 a6.25 6.25 0 1 0 -12.5 0zM868.75 475 a6.25 6.25 0 1 0 12.5 0 a6.25 6.25 0 1 0 -12.5 0z" fill="black"></path>
            <path d="M318.75 425 a6.25 6.25 0 1 0 12.5 0 a6.25 6.25 0 1 0 -12.5 0zM418.75 375 a6.25 6.25 0 1 0 12.5 0 a6.25 6.25 0 1 0 -12.5 0z" fill="black"></path>
            <path d="M18.75 325 a6.25 6.25 0 1 0 12.5 0 a6.25 6.25 0 1 0 -12.5 0zM18.75 475 a6.25 6.25 0 1 0 12.5 0 a6.25 6.25 0 1 0 -12.5 0z" fill="black"></path>
            <path d="M268.75 575 a6.25 6.25 0 1 0 12.5 0 a6.25 6.25 0 1 0 -12.5 0zM168.75 475 a6.25 6.25 0 1 0 12.5 0 a6.25 6.25 0 1 0 -12.5 0z" fill="black"></path>
            <path d="M1268.75 525 a6.25 6.25 0 1 0 12.5 0 a6.25 6.25 0 1 0 -12.5 0zM1118.75 425 a6.25 6.25 0 1 0 12.5 0 a6.25 6.25 0 1 0 -12.5 0z" fill="black"></path>
            <path d="M318.75 375 a6.25 6.25 0 1 0 12.5 0 a6.25 6.25 0 1 0 -12.5 0zM318.75 175 a6.25 6.25 0 1 0 12.5 0 a6.25 6.25 0 1 0 -12.5 0z" fill="black"></path>
            <path d="M1368.75 125 a6.25 6.25 0 1 0 12.5 0 a6.25 6.25 0 1 0 -12.5 0zM1268.75 75 a6.25 6.25 0 1 0 12.5 0 a6.25 6.25 0 1 0 -12.5 0z" fill="black"></path>
        </mask>
    </defs>
</svg>